  0
SECTION
  2
HEADER
  9
$ACADVER
  1
AC1015
  9
$ACADMAINTVER
 70
     6
  9
$DWGCODEPAGE
  3
ANSI_1251
  9
$INSBASE
 10
0.0
 20
0.0
 30
0.0
  9
$EXTMIN
 10
6.3437915927
 20
-19.6653665103
 30
0.0
  9
$EXTMAX
 10
408.7292086305
 20
283.5913428711
 30
0.0
  9
$LIMMIN
 10
0.0
 20
0.0
  9
$LIMMAX
 10
420.0
 20
297.0
  9
$ORTHOMODE
 70
     0
  9
$REGENMODE
 70
     1
  9
$FILLMODE
 70
     1
  9
$QTEXTMODE
 70
     0
  9
$MIRRTEXT
 70
     1
  9
$LTSCALE
 40
1.0
  9
$ATTMODE
 70
     1
  9
$TEXTSIZE
 40
4.0
  9
$TRACEWID
 40
1.0
  9
$TEXTSTYLE
  7
Standard
  9
$CLAYER
  8
0
  9
$CELTYPE
  6
ByLayer
  9
$CECOLOR
 62
   256
  9
$CELTSCALE
 40
1.0
  9
$DISPSILH
 70
     0
  9
$DIMSCALE
 40
1.0
  9
$DIMASZ
 40
6.0
  9
$DIMEXO
 40
1.0
  9
$DIMDLI
 40
3.75
  9
$DIMRND
 40
0.0
  9
$DIMDLE
 40
0.0
  9
$DIMEXE
 40
1.0
  9
$DIMTP
 40
0.0
  9
$DIMTM
 40
0.0
  9
$DIMTXT
 40
4.0
  9
$DIMCEN
 40
2.5
  9
$DIMTSZ
 40
0.0
  9
$DIMTOL
 70
     0
  9
$DIMLIM
 70
     0
  9
$DIMTIH
 70
     1
  9
$DIMTOH
 70
     1
  9
$DIMSE1
 70
     0
  9
$DIMSE2
 70
     0
  9
$DIMTAD
 70
     1
  9
$DIMZIN
 70
     0
  9
$DIMBLK
  1

  9
$DIMASO
 70
     1
  9
$DIMSHO
 70
     1
  9
$DIMPOST
  1

  9
$DIMAPOST
  1

  9
$DIMALT
 70
     0
  9
$DIMALTD
 70
     3
  9
$DIMALTF
 40
0.0393700787
  9
$DIMLFAC
 40
1.0
  9
$DIMTOFL
 70
     1
  9
$DIMTVP
 40
0.0
  9
$DIMTIX
 70
     0
  9
$DIMSOXD
 70
     0
  9
$DIMSAH
 70
     0
  9
$DIMBLK1
  1

  9
$DIMBLK2
  1

  9
$DIMSTYLE
  2
ISO-25
  9
$DIMCLRD
 70
     0
  9
$DIMCLRE
 70
     0
  9
$DIMCLRT
 70
     0
  9
$DIMTFAC
 40
1.0
  9
$DIMGAP
 40
3.0
  9
$DIMJUST
 70
     0
  9
$DIMSD1
 70
     0
  9
$DIMSD2
 70
     0
  9
$DIMTOLJ
 70
     0
  9
$DIMTZIN
 70
     0
  9
$DIMALTZ
 70
     0
  9
$DIMALTTZ
 70
     0
  9
$DIMUPT
 70
     0
  9
$DIMDEC
 70
     2
  9
$DIMTDEC
 70
     4
  9
$DIMALTU
 70
     2
  9
$DIMALTTD
 70
     3
  9
$DIMTXSTY
  7
Standard
  9
$DIMAUNIT
 70
     0
  9
$DIMADEC
 70
     2
  9
$DIMALTRND
 40
0.0
  9
$DIMAZIN
 70
     0
  9
$DIMDSEP
 70
    44
  9
$DIMATFIT
 70
     3
  9
$DIMFRAC
 70
     0
  9
$DIMLDRBLK
  1

  9
$DIMLUNIT
 70
     2
  9
$DIMLWD
 70
    -2
  9
$DIMLWE
 70
    -2
  9
$DIMTMOVE
 70
     0
  9
$LUNITS
 70
     2
  9
$LUPREC
 70
     2
  9
$SKETCHINC
 40
1.0
  9
$FILLETRAD
 40
10.0
  9
$AUNITS
 70
     0
  9
$AUPREC
 70
     2
  9
$MENU
  1
.
  9
$ELEVATION
 40
0.0
  9
$PELEVATION
 40
0.0
  9
$THICKNESS
 40
0.0
  9
$LIMCHECK
 70
     0
  9
$CHAMFERA
 40
0.0
  9
$CHAMFERB
 40
0.0
  9
$CHAMFERC
 40
0.0
  9
$CHAMFERD
 40
0.0
  9
$SKPOLY
 70
     0
  9
$TDCREATE
 40
2459271.491442407
  9
$TDUCREATE
 40
2459271.366442407
  9
$TDUPDATE
 40
2459271.491490926
  9
$TDUUPDATE
 40
2459271.366490926
  9
$TDINDWG
 40
0.0000000116
  9
$TDUSRTIMER
 40
0.0000000116
  9
$USRTIMER
 70
     1
  9
$ANGBASE
 50
0.0
  9
$ANGDIR
 70
     0
  9
$PDMODE
 70
     0
  9
$PDSIZE
 40
-1.0
  9
$PLINEWID
 40
0.0
  9
$SPLFRAME
 70
     0
  9
$SPLINETYPE
 70
     6
  9
$SPLINESEGS
 70
     8
  9
$HANDSEED
  5
D4
  9
$SURFTAB1
 70
     6
  9
$SURFTAB2
 70
     6
  9
$SURFTYPE
 70
     6
  9
$SURFU
 70
     6
  9
$SURFV
 70
     6
  9
$UCSBASE
  2

  9
$UCSNAME
  2

  9
$UCSORG
 10
0.0
 20
0.0
 30
0.0
  9
$UCSXDIR
 10
1.0
 20
0.0
 30
0.0
  9
$UCSYDIR
 10
0.0
 20
1.0
 30
0.0
  9
$UCSORTHOREF
  2

  9
$UCSORTHOVIEW
 70
     0
  9
$UCSORGTOP
 10
0.0
 20
0.0
 30
0.0
  9
$UCSORGBOTTOM
 10
0.0
 20
0.0
 30
0.0
  9
$UCSORGLEFT
 10
0.0
 20
0.0
 30
0.0
  9
$UCSORGRIGHT
 10
0.0
 20
0.0
 30
0.0
  9
$UCSORGFRONT
 10
0.0
 20
0.0
 30
0.0
  9
$UCSORGBACK
 10
0.0
 20
0.0
 30
0.0
  9
$PUCSBASE
  2

  9
$PUCSNAME
  2

  9
$PUCSORG
 10
0.0
 20
0.0
 30
0.0
  9
$PUCSXDIR
 10
1.0
 20
0.0
 30
0.0
  9
$PUCSYDIR
 10
0.0
 20
1.0
 30
0.0
  9
$PUCSORTHOREF
  2

  9
$PUCSORTHOVIEW
 70
     0
  9
$PUCSORGTOP
 10
0.0
 20
0.0
 30
0.0
  9
$PUCSORGBOTTOM
 10
0.0
 20
0.0
 30
0.0
  9
$PUCSORGLEFT
 10
0.0
 20
0.0
 30
0.0
  9
$PUCSORGRIGHT
 10
0.0
 20
0.0
 30
0.0
  9
$PUCSORGFRONT
 10
0.0
 20
0.0
 30
0.0
  9
$PUCSORGBACK
 10
0.0
 20
0.0
 30
0.0
  9
$USERI1
 70
     0
  9
$USERI2
 70
     0
  9
$USERI3
 70
     0
  9
$USERI4
 70
     0
  9
$USERI5
 70
     0
  9
$USERR1
 40
0.0
  9
$USERR2
 40
0.0
  9
$USERR3
 40
0.0
  9
$USERR4
 40
0.0
  9
$USERR5
 40
0.0
  9
$WORLDVIEW
 70
     1
  9
$SHADEDGE
 70
     3
  9
$SHADEDIF
 70
    70
  9
$TILEMODE
 70
     1
  9
$MAXACTVP
 70
    64
  9
$PINSBASE
 10
0.0
 20
0.0
 30
0.0
  9
$PLIMCHECK
 70
     0
  9
$PEXTMIN
 10
1.0000000000E+20
 20
1.0000000000E+20
 30
1.0000000000E+20
  9
$PEXTMAX
 10
-1.0000000000E+20
 20
-1.0000000000E+20
 30
-1.0000000000E+20
  9
$PLIMMIN
 10
0.0
 20
0.0
  9
$PLIMMAX
 10
420.0
 20
297.0
  9
$UNITMODE
 70
     0
  9
$VISRETAIN
 70
     1
  9
$PLINEGEN
 70
     0
  9
$PSLTSCALE
 70
     1
  9
$TREEDEPTH
 70
  3020
  9
$CMLSTYLE
  2
Standard
  9
$CMLJUST
 70
     0
  9
$CMLSCALE
 40
20.0
  9
$PROXYGRAPHICS
 70
     1
  9
$MEASUREMENT
 70
     1
  9
$CELWEIGHT
370
    -1
  9
$ENDCAPS
280
     0
  9
$JOINSTYLE
280
     0
  9
$LWDISPLAY
290
     1
  9
$INSUNITS
 70
     4
  9
$HYPERLINKBASE
  1

  9
$STYLESHEET
  1

  9
$XEDIT
290
     1
  9
$CEPSNTYPE
380
     0
  9
$PSTYLEMODE
290
     1
  9
$FINGERPRINTGUID
  2
{8b101658-29ed-4310-992f-0b1bf4a1b361}
  9
$VERSIONGUID
  2
{FAEB1C32-E019-11D5-929B-00C0DF256EC4}
  9
$EXTNAMES
290
     1
  9
$PSVPSCALE
 40
0.0
  9
$OLESTARTUP
290
     0
  0
ENDSEC
  0
SECTION
  2
CLASSES
  0
CLASS
  1
ACDBDICTIONARYWDFLT
  2
AcDbDictionaryWithDefault
  3
ObjectDBX Classes
 90
        0
280
     0
281
     0
  0
CLASS
  1
VISUALSTYLE
  2
AcDbVisualStyle
  3
ObjectDBX Classes
 90
     4095
280
     0
281
     0
  0
CLASS
  1
MATERIAL
  2
AcDbMaterial
  3
ObjectDBX Classes
 90
     1153
280
     0
281
     0
  0
CLASS
  1
SCALE
  2
AcDbScale
  3
ObjectDBX Classes
 90
     1153
280
     0
281
     0
  0
CLASS
  1
TABLESTYLE
  2
AcDbTableStyle
  3
ObjectDBX Classes
 90
     4095
280
     0
281
     0
  0
CLASS
  1
MLEADERSTYLE
  2
AcDbMLeaderStyle
  3
ACDB_MLEADERSTYLE_CLASS
 90
     4095
280
     0
281
     0
  0
CLASS
  1
SUN
  2
AcDbSun
  3
SCENEOE
 90
     1153
280
     0
281
     0
  0
CLASS
  1
ACDBPLACEHOLDER
  2
AcDbPlaceHolder
  3
ObjectDBX Classes
 90
        0
280
     0
281
     0
  0
CLASS
  1
LAYOUT
  2
AcDbLayout
  3
ObjectDBX Classes
 90
        0
280
     0
281
     0
  0
ENDSEC
  0
SECTION
  2
TABLES
  0
TABLE
  2
VPORT
  5
8
330
0
100
AcDbSymbolTable
 70
     1
  0
VPORT
  5
29
330
8
100
AcDbSymbolTableRecord
100
AcDbViewportTableRecord
  2
*Active
 70
     0
 10
0.0
 20
0.0
 11
1.0
 21
1.0
 12
207.5365001116
 22
131.9629881804
 13
0.0
 23
0.0
 14
10.0
 24
10.0
 15
10.0
 25
10.0
 16
0.0
 26
0.0
 36
1.0
 17
0.0
 27
0.0
 37
0.0
 40
309.321843569
 41
1.3268805094
 42
50.0
 43
0.0
 44
0.0
 50
0.0
 51
0.0
 71
     0
 72
   100
 73
     1
 74
     3
 75
     0
 76
     0
 77
     0
 78
     0
281
     0
 65
     1
110
0.0
120
0.0
130
0.0
111
1.0
121
0.0
131
0.0
112
0.0
122
1.0
132
0.0
 79
     0
146
0.0
  0
ENDTAB
  0
TABLE
  2
LTYPE
  5
5
330
0
100
AcDbSymbolTable
 70
     6
  0
LTYPE
  5
14
330
5
100
AcDbSymbolTableRecord
100
AcDbLinetypeTableRecord
  2
ByBlock
 70
     0
  3

 72
    65
 73
     0
 40
0.0
  0
LTYPE
  5
15
330
5
100
AcDbSymbolTableRecord
100
AcDbLinetypeTableRecord
  2
ByLayer
 70
     0
  3

 72
    65
 73
     0
 40
0.0
  0
LTYPE
  5
16
330
5
100
AcDbSymbolTableRecord
100
AcDbLinetypeTableRecord
  2
Continuous
 70
     0
  3
Solid line
 72
    65
 73
     0
 40
0.0
  0
LTYPE
  5
6E
330
5
100
AcDbSymbolTableRecord
100
AcDbLinetypeTableRecord
  2
HIDDEN
 70
     0
  3
Hidden __ __ __ __ __ __ __ __ __ __ __ __ __ __
 72
    65
 73
     2
 40
1.905
 49
1.27
 74
     0
 49
-0.635
 74
     0
  0
LTYPE
  5
6F
330
5
100
AcDbSymbolTableRecord
100
AcDbLinetypeTableRecord
  2
PHANTOM
 70
     0
  3
Phantom ______  __  __  ______  __  __  ______
 72
    65
 73
     6
 40
12.7
 49
6.35
 74
     0
 49
-1.27
 74
     0
 49
1.27
 74
     0
 49
-1.27
 74
     0
 49
1.27
 74
     0
 49
-1.27
 74
     0
  0
LTYPE
  5
70
330
5
100
AcDbSymbolTableRecord
100
AcDbLinetypeTableRecord
  2
CENTER
 70
     0
  3
Center ____ _ ____ _ ____ _ ____ _ ____ _ ____
 72
    65
 73
     4
 40
10.16
 49
6.35
 74
     0
 49
-1.27
 74
     0
 49
1.27
 74
     0
 49
-1.27
 74
     0
  0
LTYPE
  5
71
330
5
100
AcDbSymbolTableRecord
100
AcDbLinetypeTableRecord
  2
CENTERX2
 70
     0
  3
Center (2x) ________  __  ________  __  _____
 72
    65
 73
     4
 40
20.32
 49
12.7
 74
     0
 49
-2.54
 74
     0
 49
2.54
 74
     0
 49
-2.54
 74
     0
  0
LTYPE
  5
72
330
5
100
AcDbSymbolTableRecord
100
AcDbLinetypeTableRecord
  2
DOT2
 70
     0
  3
Dot (.5x) ........................................
 72
    65
 73
     2
 40
0.635
 49
0.0
 74
     0
 49
-0.635
 74
     0
  0
ENDTAB
  0
TABLE
  2
LAYER
  5
2
330
0
100
AcDbSymbolTable
 70
     1
  0
LAYER
  5
10
330
2
100
AcDbSymbolTableRecord
100
AcDbLayerTableRecord
  2
0
 70
     0
 62
     7
  6
Continuous
370
    -3
390
F
  0
ENDTAB
  0
TABLE
  2
STYLE
  5
3
330
0
100
AcDbSymbolTable
 70
     1
  0
STYLE
  5
11
330
3
100
AcDbSymbolTableRecord
100
AcDbTextStyleTableRecord
  2
Standard
 70
     0
 40
0.0
 41
1.0
 50
0.0
 71
     0
 42
4.0
  3
txt
  4

  0
ENDTAB
  0
TABLE
  2
VIEW
  5
6
330
0
100
AcDbSymbolTable
 70
     0
  0
ENDTAB
  0
TABLE
  2
UCS
  5
7
330
0
100
AcDbSymbolTable
 70
     0
  0
ENDTAB
  0
TABLE
  2
APPID
  5
9
330
0
100
AcDbSymbolTable
 70
     1
  0
APPID
  5
12
330
9
100
AcDbSymbolTableRecord
100
AcDbRegAppTableRecord
  2
ACAD
 70
     0
  0
ENDTAB
  0
TABLE
  2
DIMSTYLE
  5
A
330
0
100
AcDbSymbolTable
 70
     1
100
AcDbDimStyleTable
  0
DIMSTYLE
105
27
330
A
100
AcDbSymbolTableRecord
100
AcDbDimStyleTableRecord
  2
ISO-25
 70
     0
 41
2.5
 42
0.625
 43
3.75
 44
1.25
 73
     0
 74
     0
 77
     1
 78
     8
140
2.5
141
2.5
143
0.0393700787
147
0.625
171
     3
172
     1
178
     0
271
     2
272
     2
274
     3
278
    44
283
     0
284
     8
340
11
  0
ENDTAB
  0
TABLE
  2
BLOCK_RECORD
  5
1
330
0
100
AcDbSymbolTable
 70
     1
  0
BLOCK_RECORD
  5
1F
330
1
100
AcDbSymbolTableRecord
100
AcDbBlockTableRecord
  2
*Model_Space
340
22
  0
BLOCK_RECORD
  5
1B
330
1
100
AcDbSymbolTableRecord
100
AcDbBlockTableRecord
  2
*Paper_Space
340
1E
  0
BLOCK_RECORD
  5
23
330
1
100
AcDbSymbolTableRecord
100
AcDbBlockTableRecord
  2
*Paper_Space0
340
26
  0
ENDTAB
  0
ENDSEC
  0
SECTION
  2
BLOCKS
  0
BLOCK
  5
20
330
1F
100
AcDbEntity
  8
0
100
AcDbBlockBegin
  2
*Model_Space
 70
     0
 10
0.0
 20
0.0
 30
0.0
  3
*Model_Space
  1

  0
ENDBLK
  5
21
330
1F
100
AcDbEntity
  8
0
100
AcDbBlockEnd
  0
BLOCK
  5
1C
330
1B
100
AcDbEntity
 67
     1
  8
0
100
AcDbBlockBegin
  2
*Paper_Space
 70
     0
 10
0.0
 20
0.0
 30
0.0
  3
*Paper_Space
  1

  0
ENDBLK
  5
1D
330
1B
100
AcDbEntity
 67
     1
  8
0
100
AcDbBlockEnd
  0
BLOCK
  5
24
330
23
100
AcDbEntity
  8
0
100
AcDbBlockBegin
  2
*Paper_Space0
 70
     0
 10
0.0
 20
0.0
 30
0.0
  3
*Paper_Space0
  1

  0
ENDBLK
  5
25
330
23
100
AcDbEntity
  8
0
100
AcDbBlockEnd
  0
ENDSEC
  0
SECTION
  2
ENTITIES
  0
SPLINE
  5
81
330
1F
100
AcDbEntity
  8
0
  6
Continuous
 62
     7
370
    25
100
AcDbSpline
210
0.0
220
0.0
230
1.0
 70
     8
 71
     3
 72
   228
 73
   224
 74
     0
 42
0.000000001
 43
0.00000001
 40
0.0
 40
0.0
 40
0.0
 40
0.0
 40
0.0410856170329704
 40
0.0521589562722667
 40
0.0605687416094035
 40
0.0631324573677661
 40
0.0642460308946848
 40
0.0660677491839103
 40
0.0688919815495191
 40
0.0724630756746066
 40
0.075690429641754
 40
0.0784551374340765
 40
0.0811964393211491
 40
0.0834542366289261
 40
0.087235663732624
 40
0.0902910476863661
 40
0.0936348013777159
 40
0.0968847044309734
 40
0.0993516207441632
 40
0.1025446283179106
 40
0.1063366434382221
 40
0.1077973167224196
 40
0.1090046685417054
 40
0.1120172310662501
 40
0.1185462716657353
 40
0.1250753122652203
 40
0.1312353431389301
 40
0.1393507545687871
 40
0.1448315298069495
 40
0.1585433286866292
 40
0.1588259523668174
 40
0.1599652448445436
 40
0.1624812306274544
 40
0.1661553384699053
 40
0.169771375647751
 40
0.1731921730963561
 40
0.1757302848082896
 40
0.1785288301408429
 40
0.1807942312732608
 40
0.1833605103154817
 40
0.1861761287825112
 40
0.1883880089458457
 40
0.1899165302017161
 40
0.1918458379372814
 40
0.1942481392188841
 40
0.1967641250017952
 40
0.1995404621488676
 40
0.201830411688313
 40
0.2039500892897275
 40
0.2052832225229125
 40
0.2069044743784497
 40
0.2100531081575793
 40
0.2163755322270365
 40
0.2236345969794104
 40
0.2362803260161736
 40
0.2488927584819977
 40
0.2652339640579982
 40
0.26555012899061
 40
0.2670498309456065
 40
0.2695378099218486
 40
0.2731771415996931
 40
0.2778208392733006
 40
0.2815366180005426
 40
0.2827561362813819
 40
0.2851247360539629
 40
0.288271174540264
 40
0.2906496083992705
 40
0.2929046214965689
 40
0.2951518580250059
 40
0.2966000944605955
 40
0.2973844488513627
 40
0.2981694251524685
 40
0.2994684198713373
 40
0.3014833548087634
 40
0.3035362978386855
 40
0.3052038698580486
 40
0.3067046846754759
 40
0.3079071879597454
 40
0.3095444685612101
 40
0.3111817491626745
 40
0.3132107122104969
 40
0.3151207920331677
 40
0.3165342007363839
 40
0.317515096025474
 40
0.3203128364394521
 40
0.3240900443046801
 40
0.3282783109782515
 40
0.3317930875115104
 40
0.3362331219914668
 40
0.3422079600979456
 40
0.3652105700541782
 40
0.3860709852518324
 40
0.3862601872060023
 40
0.3865124564782275
 40
0.3869113292201794
 40
0.3878964722209982
 40
0.3898031506833061
 40
0.3928992357471289
 40
0.3980080777992889
 40
0.4034833235979319
 40
0.4085945007650391
 40
0.4160508609890398
 40
0.4231169341117404
 40
0.4285838193642041
 40
0.4343492209610695
 40
0.4401599768331786
 40
0.4427210069803339
 40
0.446073674150045
 40
0.4556775242595295
 40
0.4665377457283525
 40
0.4893585255867872
 40
0.5034877831072028
 40
0.5042554961524154
 40
0.5065428331176577
 40
0.5081498196403866
 40
0.5110207600858387
 40
0.5139121569291109
 40
0.5163003397211929
 40
0.5187834539490416
 40
0.521631881840798
 40
0.5243285619150013
 40
0.5270965906643524
 40
0.5296587818045396
 40
0.5313690901841256
 40
0.5339244892805382
 40
0.5364986997743089
 40
0.5389357764989436
 40
0.5416161343657848
 40
0.543773830172687
 40
0.5455751966343606
 40
0.5480691968566259
 40
0.5501909874559697
 40
0.5521833840980093
 40
0.5540306616446298
 40
0.5561265438543436
 40
0.5583714957021176
 40
0.5614439535812776
 40
0.564457524721266
 40
0.5686720859228671
 40
0.570739272441427
 40
0.5735828781152722
 40
0.577301779950727
 40
0.579926467187132
 40
0.5829205676656964
 40
0.5865524556985694
 40
0.5897237674851076
 40
0.5930933194383406
 40
0.5957505190746645
 40
0.5971121915312679
 40
0.5984956231148004
 40
0.6006180552074919
 40
0.6025966591848029
 40
0.6055899283151651
 40
0.6086244858667135
 40
0.6116655975458769
 40
0.6147364349302643
 40
0.6219708343582353
 40
0.6268421940898177
 40
0.6309647344688261
 40
0.6351985795605716
 40
0.6372087577699258
 40
0.6412231625104399
 40
0.6435151183048159
 40
0.652579365535425
 40
0.6544324999429244
 40
0.6620464623798112
 40
0.6667144690702207
 40
0.6722184112648809
 40
0.679393222218665
 40
0.6853585074733455
 40
0.691735456136078
 40
0.6985991402140604
 40
0.7061809786612218
 40
0.7141289235677912
 40
0.7251311645605184
 40
0.7429575566107021
 40
0.754199400259261
 40
0.7559871374969129
 40
0.7608349289872222
 40
0.76731592159603
 40
0.775252996415047
 40
0.7817483064034783
 40
0.7934471453377347
 40
0.801373484483474
 40
0.8043310941241081
 40
0.8062723198189429
 40
0.8078334230537357
 40
0.8185967149811145
 40
0.8205509589018206
 40
0.8260304507698739
 40
0.8363719312477457
 40
0.8465342882226166
 40
0.8546228521505496
 40
0.8640116069175272
 40
0.8694884662504961
 40
0.8740111003990794
 40
0.8785034937127212
 40
0.8811054668632181
 40
0.8887024893029578
 40
0.8905152309845459
 40
0.898264255601926
 40
0.9000994763300154
 40
0.9078988101882676
 40
0.9133339991811721
 40
0.9271973299064248
 40
0.9357718665721472
 40
0.9444495642627689
 40
0.945031609054672
 40
0.9458947851621902
 40
0.9478380328818199
 40
0.9512973075564158
 40
0.957664653851468
 40
0.9632747051544792
 40
0.9640136661515871
 40
0.9650542638225481
 40
0.9655860649620526
 40
0.9668598592883063
 40
0.9700933363102366
 40
0.972240638040434
 40
0.975714163287819
 40
0.9801451617907383
 40
0.9861345508089729
 40
1.0
 40
1.0
 40
1.0
 40
1.0
 10
87.20645947144529
 20
148.4473462623258
 30
0.0
 10
76.32305876858852
 20
166.3895990799747
 30
0.0
 10
60.91857627816519
 20
187.5970239804111
 30
0.0
 10
58.29062768428111
 20
220.7455301553529
 30
0.0
 10
59.55996887371043
 20
228.9820184064627
 30
0.0
 10
63.62256141069849
 20
237.9618568509638
 30
0.0
 10
65.14218912954733
 20
234.7604300218678
 30
0.0
 10
66.01111246016961
 20
232.2533909224903
 30
0.0
 10
67.543072609552
 20
228.2564037204344
 30
0.0
 10
69.56774541971194
 20
223.8503937162783
 30
0.0
 10
72.54618855672749
 20
219.9848200260931
 30
0.0
 10
75.64869498516313
 20
216.8527823044604
 30
0.0
 10
78.50054561695879
 20
214.1420047769921
 30
0.0
 10
82.18514775417302
 20
211.652906278273
 30
0.0
 10
86.18963981141144
 20
209.4159148188571
 30
0.0
 10
90.65075896728595
 20
206.8361763495044
 30
0.0
 10
95.24162220473036
 20
205.1843216316686
 30
0.0
 10
99.46271251824801
 20
203.4074301314436
 30
0.0
 10
103.8304937720861
 20
202.3201575654412
 30
0.0
 10
108.356143141075
 20
200.7918583055816
 30
0.0
 10
112.4845849599851
 20
199.811870859731
 30
0.0
 10
116.3569692633768
 20
198.6703138182154
 30
0.0
 10
115.1006642060219
 20
202.3049751226206
 30
0.0
 10
114.3229254653849
 20
207.2227935273332
 30
0.0
 10
113.0348098225146
 20
215.6170466208279
 30
0.0
 10
113.3045994493347
 20
224.9547707887648
 30
0.0
 10
113.9907263456392
 20
235.6386612731474
 30
0.0
 10
117.5286159981483
 20
245.0257359983861
 30
0.0
 10
124.1627394206212
 20
257.4623674652513
 30
0.0
 10
131.5424635427435
 20
262.8252174477829
 30
0.0
 10
139.384932429718
 20
266.9827124174378
 30
0.0
 10
138.2132507019709
 20
263.5970843427418
 30
0.0
 10
137.6339385680353
 20
261.0964189048339
 30
0.0
 10
136.8246033827513
 20
255.659398277781
 30
0.0
 10
137.1001689972018
 20
250.3701300190401
 30
0.0
 10
137.7476891983983
 20
245.5242069407299
 30
0.0
 10
138.9334392082914
 20
241.2455532970711
 30
0.0
 10
140.4244479550686
 20
237.6946363404755
 30
0.0
 10
142.0939084757311
 20
234.2031958477203
 30
0.0
 10
144.3630464803935
 20
231.0557596825173
 30
0.0
 10
146.8091650223995
 20
228.0902440227747
 30
0.0
 10
149.3300096509996
 20
225.9061963243692
 30
0.0
 10
151.7940067955871
 20
224.4414316425292
 30
0.0
 10
154.1353653006128
 20
222.6169419315735
 30
0.0
 10
157.2117654323411
 20
221.0155096237549
 30
0.0
 10
160.5331711617684
 20
219.0171980271953
 30
0.0
 10
164.1927717939782
 20
217.661552555792
 30
0.0
 10
166.8970017216521
 20
216.5232319374392
 30
0.0
 10
171.6401140130757
 20
214.5247589147889
 30
0.0
 10
170.6712071999735
 20
217.8201952911068
 30
0.0
 10
171.4573283353604
 20
220.5535648561318
 30
0.0
 10
171.441652483036
 20
227.3126938517442
 30
0.0
 10
172.6116614206008
 20
234.2817129955525
 30
0.0
 10
176.6935114090903
 20
247.6589844168284
 30
0.0
 10
186.3346352976194
 20
260.8574297021365
 30
0.0
 10
202.1272596851469
 20
275.8581815495384
 30
0.0
 10
215.1128411081942
 20
280.3364403210147
 30
0.0
 10
224.7847701912231
 20
283.8506691608906
 30
0.0
 10
223.7113152146435
 20
280.121495714426
 30
0.0
 10
222.1142471593942
 20
277.732470454121
 30
0.0
 10
219.7529255033384
 20
272.1732150222407
 30
0.0
 10
217.9696646695727
 20
267.1708813278972
 30
0.0
 10
216.5664100087347
 20
262.5252805088417
 30
0.0
 10
215.4860431834726
 20
258.3103548775215
 30
0.0
 10
215.8327301021684
 20
255.0854091016463
 30
0.0
 10
214.6944585209898
 20
251.0155923897423
 30
0.0
 10
215.9628298297672
 20
247.2027347277642
 30
0.0
 10
215.3266887681699
 20
243.5573116507872
 30
0.0
 10
217.1861137007179
 20
241.0271369578925
 30
0.0
 10
217.2337846686519
 20
238.485882882973
 30
0.0
 10
218.7640863287757
 20
237.7195646343432
 30
0.0
 10
218.9428388204541
 20
236.163370091831
 30
0.0
 10
220.1692105088884
 20
234.4766619654044
 30
0.0
 10
220.5498902129057
 20
231.5790306014113
 30
0.0
 10
223.2011680488432
 20
229.9293708228792
 30
0.0
 10
224.2437223073163
 20
227.3970242812554
 30
0.0
 10
226.1089744497569
 20
226.1129926756741
 30
0.0
 10
227.8285497581904
 20
224.7710946113061
 30
0.0
 10
229.6651823104143
 20
223.4505486778066
 30
0.0
 10
231.7410045073213
 20
221.7305200489348
 30
0.0
 10
234.2924804450963
 20
220.5530613104051
 30
0.0
 10
236.6569256611946
 20
219.091505746869
 30
0.0
 10
238.5703520149808
 20
218.4663320436884
 30
0.0
 10
241.4417676336693
 20
216.8825592546401
 30
0.0
 10
239.6901250012447
 20
223.3508216538798
 30
0.0
 10
241.8666508605552
 20
227.7159720188737
 30
0.0
 10
242.9782759962188
 20
233.4628986999753
 30
0.0
 10
245.6982856774648
 20
238.9990260203712
 30
0.0
 10
248.8935844031046
 20
245.2925046984885
 30
0.0
 10
259.2442330039899
 20
258.6321681567531
 30
0.0
 10
281.9684814824569
 20
274.2075400266889
 30
0.0
 10
300.5105427518706
 20
277.204947882018
 30
0.0
 10
313.6985377716859
 20
278.9008683727801
 30
0.0
 10
313.5414453227415
 20
278.3259058301956
 30
0.0
 10
313.2902371024009
 20
277.6296897657717
 30
0.0
 10
311.8797568914458
 20
276.5132898295923
 30
0.0
 10
310.302586242402
 20
273.9779951868687
 30
0.0
 10
307.0508774938264
 20
269.9890336435396
 30
0.0
 10
303.5694336204947
 20
264.0148005343294
 30
0.0
 10
299.6313895872404
 20
257.0905835787646
 30
0.0
 10
296.8127275443986
 20
248.3810107757114
 30
0.0
 10
294.7329937256053
 20
238.5737200604214
 30
0.0
 10
294.3332729551908
 20
228.6344415623549
 30
0.0
 10
295.7520928290299
 20
218.7268749131439
 30
0.0
 10
297.7913926184225
 20
213.0429937873981
 30
0.0
 10
302.1121350544125
 20
198.4247987436623
 30
0.0
 10
302.9258862936975
 20
207.7766929047943
 30
0.0
 10
305.0257654183042
 20
213.8032043235665
 30
0.0
 10
310.6870178278132
 20
225.5107256037622
 30
0.0
 10
323.4502638229723
 20
242.8365813924299
 30
0.0
 10
350.2954399179874
 20
252.4439167013314
 30
0.0
 10
365.9582685668099
 20
247.9135162780585
 30
0.0
 10
376.3186986288293
 20
244.4276807312427
 30
0.0
 10
371.6326025214654
 20
243.7826076221163
 30
0.0
 10
369.4186983950419
 20
241.9632915215891
 30
0.0
 10
365.6658247715483
 20
240.4867874264577
 30
0.0
 10
362.9501602391626
 20
237.3891562636146
 30
0.0
 10
360.0748023505492
 20
234.6846275551569
 30
0.0
 10
358.1301501391818
 20
231.2719146164347
 30
0.0
 10
355.4934542849457
 20
228.1399079117017
 30
0.0
 10
354.0556435283304
 20
224.131113185452
 30
0.0
 10
352.093003512549
 20
220.6131686937395
 30
0.0
 10
350.858538399455
 20
217.1460251918097
 30
0.0
 10
350.4988293634459
 20
213.9380486464972
 30
0.0
 10
349.5436623565993
 20
210.3161015093166
 30
0.0
 10
349.7249817100165
 20
206.8310018652485
 30
0.0
 10
349.0810229395249
 20
202.8078230420527
 30
0.0
 10
349.1976783961567
 20
199.2559599726812
 30
0.0
 10
348.8566681345182
 20
195.9275064636413
 30
0.0
 10
349.3410099156548
 20
192.8041108813389
 30
0.0
 10
349.5133142715097
 20
189.7275667694234
 30
0.0
 10
350.0042131865571
 20
185.8878891492509
 30
0.0
 10
350.3515315660683
 20
183.4121960956363
 30
0.0
 10
350.4612214387444
 20
178.6631997221156
 30
0.0
 10
353.0158506569088
 20
183.2090056357636
 30
0.0
 10
355.6803955359445
 20
184.78268084238
 30
0.0
 10
359.7771392050379
 20
186.9329986452945
 30
0.0
 10
364.7416935667266
 20
188.0723610641444
 30
0.0
 10
369.2898394870255
 20
189.3995499983089
 30
0.0
 10
373.8777576187287
 20
189.8334233161816
 30
0.0
 10
378.2765674543607
 20
189.3795520006902
 30
0.0
 10
382.6397553542158
 20
189.1335003230614
 30
0.0
 10
387.5844620922367
 20
188.9868696429876
 30
0.0
 10
391.9916647903795
 20
187.8771759382149
 30
0.0
 10
396.6086071624122
 20
186.1924192472901
 30
0.0
 10
401.6201004101904
 20
184.1711336098975
 30
0.0
 10
404.7953526368184
 20
182.3285418366854
 30
0.0
 10
410.1837994841979
 20
179.1204856249058
 30
0.0
 10
406.672908090075
 20
178.1117061932345
 30
0.0
 10
404.6184196708635
 20
177.2023801658412
 30
0.0
 10
402.052156547011
 20
175.959724723813
 30
0.0
 10
399.0016652007292
 20
174.1393883734139
 30
0.0
 10
395.6274194584068
 20
171.846637426576
 30
0.0
 10
391.9706486063469
 20
169.2955652522971
 30
0.0
 10
388.7666296246784
 20
165.739619619521
 30
0.0
 10
383.2068508073749
 20
161.8856530063605
 30
0.0
 10
379.5805585581444
 20
154.8038041643711
 30
0.0
 10
375.4070373458178
 20
147.8066698844987
 30
0.0
 10
372.4677099713421
 20
141.7827866802685
 30
0.0
 10
370.7683397963827
 20
136.7730826941555
 30
0.0
 10
370.1517208806806
 20
131.6114715554082
 30
0.0
 10
370.0632658346429
 20
127.3689824582475
 30
0.0
 10
371.1379015431672
 20
119.7047563467392
 30
0.0
 10
373.6210922479782
 20
112.8143062754677
 30
0.0
 10
379.1702969903086
 20
104.9221004751316
 30
0.0
 10
381.2796246619347
 20
98.44528403576976
 30
0.0
 10
386.8247519190815
 20
90.90324501319537
 30
0.0
 10
392.2692842112597
 20
83.89496448287578
 30
0.0
 10
398.8945643204813
 20
76.75913441359914
 30
0.0
 10
402.4492260810232
 20
67.08601994172605
 30
0.0
 10
402.4676727141569
 20
56.93248003235908
 30
0.0
 10
398.3653576119181
 20
46.81619854268882
 30
0.0
 10
390.9327529416897
 20
37.56425733525992
 30
0.0
 10
378.3171467557966
 20
31.78097688404
 30
0.0
 10
359.5530522130011
 20
27.17190403424978
 30
0.0
 10
340.3917418332612
 20
28.8142836061759
 30
0.0
 10
321.2597936318415
 20
31.79753718692919
 30
0.0
 10
317.4200478892362
 20
34.77161083314663
 30
0.0
 10
315.7303213617006
 20
26.116681381159
 30
0.0
 10
315.0326677019223
 20
20.40644465978801
 30
0.0
 10
316.2141191460615
 20
12.02800874433234
 30
0.0
 10
321.8378663869485
 20
1.894812117543387
 30
0.0
 10
325.7873434578968
 20
-6.196189324160523
 30
0.0
 10
332.0064460650022
 20
-12.2514723637159
 30
0.0
 10
333.8247025067329
 20
-16.39516955384063
 30
0.0
 10
333.8002280105151
 20
-19.97191135921458
 30
0.0
 10
326.3820979291327
 20
-18.68950988319384
 30
0.0
 10
292.7296122819569
 20
-17.91278922033185
 30
0.0
 10
280.9839361580453
 20
-16.47245146242932
 30
0.0
 10
277.1919930632375
 20
0.7772940889333446
 30
0.0
 10
264.8801554797288
 20
16.02333358011339
 30
0.0
 10
242.272923732327
 20
19.93140542173331
 30
0.0
 10
221.4914138206646
 20
21.19816155353041
 30
0.0
 10
204.7750758625398
 20
22.11159392912808
 30
0.0
 10
188.8881323840371
 20
11.56032419358242
 30
0.0
 10
196.7985717803087
 20
0.6271436276632236
 30
0.0
 10
203.1298567959918
 20
-5.051439200635444
 30
0.0
 10
208.734436786458
 20
-14.13115966019565
 30
0.0
 10
193.9747113817532
 20
-11.43226975662231
 30
0.0
 10
177.6305704123345
 20
-10.45920876710613
 30
0.0
 10
153.5335690161618
 20
-8.78913887578381
 30
0.0
 10
147.6756101805592
 20
-9.138498776084191
 30
0.0
 10
138.1569981381002
 20
15.2614575893463
 30
0.0
 10
111.0515242518356
 20
19.57666741150503
 30
0.0
 10
83.0689071102729
 20
20.70184609959659
 30
0.0
 10
52.46958899777898
 20
35.5567891360195
 30
0.0
 10
43.30527808631842
 20
46.77496865500807
 30
0.0
 10
36.23384638339638
 20
58.78749524713338
 30
0.0
 10
41.32319833104345
 20
56.69810177907026
 30
0.0
 10
46.16837277579381
 20
55.66098735599584
 30
0.0
 10
58.77603824806996
 20
54.49754524619917
 30
0.0
 10
75.30941213230643
 20
56.50330893840201
 30
0.0
 10
84.50730545393782
 20
56.58659526130029
 30
0.0
 10
93.0542456786795
 20
64.83910289824695
 30
0.0
 10
93.53760672870618
 20
67.09757492844984
 30
0.0
 10
90.1996099946008
 20
67.58164693260025
 30
0.0
 10
85.4934422664591
 20
67.73621790415079
 30
0.0
 10
78.6163542037357
 20
67.60081713832801
 30
0.0
 10
69.8498506328629
 20
68.66679093011028
 30
0.0
 10
60.00753283598825
 20
71.05694163162995
 30
0.0
 10
47.19857421821339
 20
76.59774196828603
 30
0.0
 10
25.69582198246095
 20
88.06714382386168
 30
0.0
 10
11.11102751298873
 20
102.7197041709881
 30
0.0
 10
6.343791592686693
 20
116.2935382808936
 30
0.0
  0
SPLINE
  5
82
330
1F
100
AcDbEntity
  8
0
  6
Continuous
 62
     7
370
    25
100
AcDbSpline
210
0.0
220
0.0
230
1.0
 70
     8
 71
     3
 72
    36
 73
    32
 74
     0
 42
0.000000001
 43
0.00000001
 40
0.0
 40
0.0
 40
0.0
 40
0.0
 40
0.0007056705483794
 40
0.0013587906158964
 40
0.0021598151972824
 40
0.0030634066782124
 40
0.0041479616086786
 40
0.0075080180593769
 40
0.0158198645069377
 40
0.0348579288175772
 40
0.0503319021542077
 40
0.0819939626563102
 40
0.1156979641292962
 40
0.1529048832071369
 40
0.215309413359257
 40
0.2764930328878951
 40
0.3381919693258004
 40
0.4002175891513061
 40
0.4623444391539318
 40
0.5243295548817417
 40
0.5864576187650485
 40
0.6484974634980937
 40
0.729778635302721
 40
0.8110437620258559
 40
0.8916238911279002
 40
0.9148809818342503
 40
0.9401425052386011
 40
0.9660931083768787
 40
0.992594120160658
 40
0.9972596230705354
 40
1.0
 40
1.0
 40
1.0
 40
1.0
 10
139.2621229590175
 20
266.7143450474863
 30
0.0
 10
139.2782812493453
 20
266.7149626744738
 30
0.0
 10
139.3093945405501
 20
266.7161519344712
 30
0.0
 10
139.3571379865733
 20
266.6995802460494
 30
0.0
 10
139.3974839616286
 20
266.6613855847177
 30
0.0
 10
139.4233383991618
 20
266.6018941368188
 30
0.0
 10
139.4437119056212
 20
266.4807176043328
 30
0.0
 10
139.4163729573645
 20
266.1871468542851
 30
0.0
 10
139.2337914506694
 20
265.5091884945616
 30
0.0
 10
138.9137615488623
 20
264.5843999821054
 30
0.0
 10
138.4704197360192
 20
263.1387687733499
 30
0.0
 10
138.0557462367955
 20
261.3362009706941
 30
0.0
 10
137.6841422313992
 20
259.0212944005114
 30
0.0
 10
137.3206595177619
 20
255.9939944359214
 30
0.0
 10
137.3115312361184
 20
252.3066554264996
 30
0.0
 10
137.731300786456
 20
248.0900970792025
 30
0.0
 10
138.4715471805904
 20
243.9173221508665
 30
0.0
 10
139.8348318904119
 20
239.8839398709558
 30
0.0
 10
141.521736195223
 20
235.9714905861037
 30
0.0
 10
143.7376983013135
 20
232.3251807024929
 30
0.0
 10
146.3700632482685
 20
228.9743586583505
 30
0.0
 10
149.8043580666665
 20
225.7497979193003
 30
0.0
 10
154.1201121499035
 20
222.9655028075858
 30
0.0
 10
158.8902010620375
 20
220.1429146738092
 30
0.0
 10
162.7252631781051
 20
218.3610355842113
 30
0.0
 10
165.4694695535347
 20
217.3028094879677
 30
0.0
 10
167.0345949016634
 20
216.6449206529147
 30
0.0
 10
168.6608592093731
 20
215.9508480552159
 30
0.0
 10
169.8856432442868
 20
215.4873606045023
 30
0.0
 10
170.6543034048862
 20
215.3714943488878
 30
0.0
 10
170.8227942086972
 20
215.3843711671002
 30
0.0
 10
170.8851403878963
 20
215.3891359399995
 30
0.0
  0
SPLINE
  5
83
330
1F
100
AcDbEntity
  8
0
  6
Continuous
 62
     7
370
    25
100
AcDbSpline
210
0.0
220
0.0
230
1.0
 70
     8
 71
     3
 72
    50
 73
    46
 74
     0
 42
0.000000001
 43
0.00000001
 40
0.0
 40
0.0
 40
0.0
 40
0.0
 40
0.0000615221004691
 40
0.0015843778999166
 40
0.0028906105377118
 40
0.0044910713722567
 40
0.0063985547812105
 40
0.0087018195795864
 40
0.0213486469943347
 40
0.0355421983821015
 40
0.0475876647642565
 40
0.0759852784672547
 40
0.1049687786470741
 40
0.1365870310804696
 40
0.1672176714350538
 40
0.200766056845366
 40
0.2340395605864382
 40
0.2692084672407687
 40
0.3078081407983191
 40
0.3471442312342958
 40
0.3748353338586869
 40
0.4028587796915391
 40
0.4312047863578724
 40
0.459177788051473
 40
0.487483648997607
 40
0.515933056435263
 40
0.5432059383678018
 40
0.5655426515762848
 40
0.5884491044522808
 40
0.6075015186396918
 40
0.6267007228429881
 40
0.6464463147529491
 40
0.6662767962617732
 40
0.69420567277331
 40
0.7224080999600004
 40
0.7506586918641058
 40
0.7785110448246646
 40
0.8068510878217705
 40
0.8602315038919995
 40
0.913438747006699
 40
0.9662853646170816
 40
0.9839228390313574
 40
0.9973985088893609
 40
0.9998110794407947
 40
1.0
 40
1.0
 40
1.0
 40
1.0
 10
224.4368692727346
 20
283.5904413002442
 30
0.0
 10
224.4384257984862
 20
283.5908808598353
 30
0.0
 10
224.4785109871037
 20
283.6022008326034
 30
0.0
 10
224.5580953783571
 20
283.58827739987
 30
0.0
 10
224.6643332001965
 20
283.5361424754022
 30
0.0
 10
224.7372466513926
 20
283.4254029834764
 30
0.0
 10
224.7735130514086
 20
283.2753448775982
 30
0.0
 10
224.7898811474111
 20
282.8289711594063
 30
0.0
 10
224.5931211919886
 20
282.0730810093599
 30
0.0
 10
224.2660248488284
 20
281.1060301803398
 30
0.0
 10
223.7317717556683
 20
279.7654117356651
 30
0.0
 10
222.8159046020998
 20
278.1781266429576
 30
0.0
 10
221.7657250067542
 20
276.0806948248143
 30
0.0
 10
220.8278912518747
 20
273.8655502363148
 30
0.0
 10
219.8964283837222
 20
271.5189265404721
 30
0.0
 10
219.0105553580937
 20
269.1073624363344
 30
0.0
 10
218.1533606564818
 20
266.5592665302271
 30
0.0
 10
217.3197740111264
 20
263.8617193969382
 30
0.0
 10
216.492548121457
 20
261.0028269320902
 30
0.0
 10
215.8923645147595
 20
258.2570979550949
 30
0.0
 10
216.0366881726312
 20
255.7374348566312
 30
0.0
 10
215.7160068186789
 20
253.5420745109205
 30
0.0
 10
215.3609916212928
 20
251.3289228838335
 30
0.0
 10
215.695736283551
 20
249.1048205338282
 30
0.0
 10
216.1621122654336
 20
246.9057871705868
 30
0.0
 10
215.8724928571001
 20
244.6753545496232
 30
0.0
 10
216.4077622808351
 20
242.6357676027324
 30
0.0
 10
217.4171091894895
 20
240.9899294420277
 30
0.0
 10
217.4002784378781
 20
239.1547908386991
 30
0.0
 10
218.6994141847875
 20
238.0422531087474
 30
0.0
 10
219.2923963925003
 20
236.6202742011396
 30
0.0
 10
219.9563561510999
 20
235.2203894325685
 30
0.0
 10
220.6603810355656
 20
233.5975040417607
 30
0.0
 10
221.1716370532488
 20
231.5696057741827
 30
0.0
 10
223.0961936571833
 20
230.248361714515
 30
0.0
 10
224.2034374287004
 20
228.3057680784896
 30
0.0
 10
225.6545727508732
 20
226.5867859940766
 30
0.0
 10
228.0770824461276
 20
224.9954327071146
 30
0.0
 10
230.7786807287322
 20
222.6777464605698
 30
0.0
 10
234.440828621358
 20
220.6017628757893
 30
0.0
 10
237.3117159128608
 20
219.0737146743658
 30
0.0
 10
239.3650239637658
 20
218.2439948642318
 30
0.0
 10
240.141384044156
 20
217.838919364323
 30
0.0
 10
240.5706484774239
 20
217.7489844676084
 30
0.0
 10
240.6372015817014
 20
217.7650026700694
 30
0.0
 10
240.6420346751628
 20
217.7661659136238
 30
0.0
  0
SPLINE
  5
84
330
1F
100
AcDbEntity
  8
0
  6
Continuous
 62
     7
370
    25
100
AcDbSpline
210
0.0
220
0.0
230
1.0
 70
     8
 71
     3
 72
    38
 73
    34
 74
     0
 42
0.000000001
 43
0.00000001
 40
0.0
 40
0.0
 40
0.0
 40
0.0
 40
0.0001308174870542
 40
0.0015674428717608
 40
0.002017389296927
 40
0.002424008149382
 40
0.0030265586568504
 40
0.0037460476074263
 40
0.0051098991867417
 40
0.0077771558998672
 40
0.0118388038562093
 40
0.0183740733745663
 40
0.0311822763088831
 40
0.053780812733117
 40
0.1215835288134696
 40
0.2128719627920596
 40
0.3042236528017825
 40
0.3954220438378659
 40
0.4870312863289677
 40
0.5778310880632492
 40
0.6287545528994958
 40
0.6808630434551592
 40
0.7338900965095396
 40
0.7826942717103201
 40
0.8274129352319873
 40
0.886655640099147
 40
0.9638541170244364
 40
0.9887148412333623
 40
0.9933911482651441
 40
0.9969213111972892
 40
0.9983484512613612
 40
0.9995577303485879
 40
1.0
 40
1.0
 40
1.0
 40
1.0
 10
313.7669099778546
 20
278.8918382404916
 30
0.0
 10
313.7704800389697
 20
278.8922878840305
 30
0.0
 10
313.8132561767216
 20
278.8976754707806
 30
0.0
 10
313.8702778669644
 20
278.8979343098835
 30
0.0
 10
313.9308775741711
 20
278.877863687331
 30
0.0
 10
313.9628994430464
 20
278.8515606105582
 30
0.0
 10
313.9810991415044
 20
278.8053557787328
 30
0.0
 10
313.9846815011407
 20
278.7307943932277
 30
0.0
 10
313.9626360177155
 20
278.6005716327279
 30
0.0
 10
313.8972355866227
 20
278.3869993553024
 30
0.0
 10
313.7856000852354
 20
278.036889054324
 30
0.0
 10
313.4278828010433
 20
277.4868284009925
 30
0.0
 10
312.5249002528662
 20
276.7503882775804
 30
0.0
 10
310.8174563733285
 20
274.454990862104
 30
0.0
 10
307.7986507284578
 20
270.4636318811266
 30
0.0
 10
304.1931994830871
 20
264.5582162768426
 30
0.0
 10
300.4346950022202
 20
257.9839358747929
 30
0.0
 10
297.8779743967846
 20
250.8235233311099
 30
0.0
 10
296.0774617829794
 20
243.478879763192
 30
0.0
 10
295.1219066760475
 20
237.0890135684639
 30
0.0
 10
294.8671362616788
 20
231.7349000264695
 30
0.0
 10
295.004612260023
 20
227.420052549472
 30
0.0
 10
295.4753502867173
 20
223.1900864023
 30
0.0
 10
296.1849072234129
 20
219.1971037524396
 30
0.0
 10
297.3651049847088
 20
215.141449198117
 30
0.0
 10
298.9133804028581
 20
210.3801240546828
 30
0.0
 10
300.1910937250655
 20
206.1233487240479
 30
0.0
 10
301.2901744285859
 20
203.3619882654857
 30
0.0
 10
301.786784473879
 20
202.5973877641334
 30
0.0
 10
301.9666113100444
 20
202.3949449508864
 30
0.0
 10
302.1104985205757
 20
202.305845466128
 30
0.0
 10
302.1941813707027
 20
202.2752560357292
 30
0.0
 10
302.2392798942399
 20
202.283247359682
 30
0.0
 10
302.2513568664887
 20
202.2853873631686
 30
0.0
  0
SPLINE
  5
85
330
1F
100
AcDbEntity
  8
0
  6
Continuous
 62
     7
370
    25
100
AcDbSpline
210
0.0
220
0.0
230
1.0
 70
     8
 71
     3
 72
    52
 73
    48
 74
     0
 42
0.000000001
 43
0.00000001
 40
0.0
 40
0.0
 40
0.0
 40
0.0
 40
0.0219958304044892
 40
0.0764684579936407
 40
0.1316164583620627
 40
0.1955360843545443
 40
0.2268707876813818
 40
0.2398484721176413
 40
0.2523519952328543
 40
0.2546316438940825
 40
0.2552917906628014
 40
0.2558224226238893
 40
0.2563370738759664
 40
0.2568179543678702
 40
0.2573625203888678
 40
0.2586567443426396
 40
0.2604247631890625
 40
0.2640899799238372
 40
0.2726415795676094
 40
0.2898588215661154
 40
0.3074213435518325
 40
0.3225799241925991
 40
0.3390074815200586
 40
0.380684028220603
 40
0.4221267647336024
 40
0.4633479147473677
 40
0.5048109932846224
 40
0.5371802782361145
 40
0.5696879809947667
 40
0.6022671698108018
 40
0.6347984251422184
 40
0.6753850583624165
 40
0.7164325321347995
 40
0.7568019946334471
 40
0.7979998160775986
 40
0.8404727837145108
 40
0.8822472196991019
 40
0.9272931110934978
 40
0.951930033868753
 40
0.9791336844551576
 40
0.98869015022362
 40
0.9959775805252775
 40
0.9971153656011374
 40
0.9980738959152273
 40
0.9988826718865597
 40
0.9996179675646807
 40
1.0
 40
1.0
 40
1.0
 40
1.0
 10
350.2759001131483
 20
249.4594739787881
 30
0.0
 10
351.013812527548
 20
249.5449138724553
 30
0.0
 10
353.5791634793351
 20
249.841945482525
 30
0.0
 10
358.0431246646843
 20
249.5503211400264
 30
0.0
 10
363.8131141975221
 20
248.514649102799
 30
0.0
 10
368.6921934847186
 20
247.0810351784684
 30
0.0
 10
372.1731059359682
 20
245.9691504985316
 30
0.0
 10
373.9882541147527
 20
245.3493931689406
 30
0.0
 10
374.8880816810399
 20
245.0816141128806
 30
0.0
 10
375.3589004202886
 20
244.8492657773995
 30
0.0
 10
375.4509472772344
 20
244.7756910006439
 30
0.0
 10
375.4883552019913
 20
244.7311604212712
 30
0.0
 10
375.5077806098262
 20
244.6813537237729
 30
0.0
 10
375.5004577124224
 20
244.6276017603048
 30
0.0
 10
375.4574269327384
 20
244.5601850061507
 30
0.0
 10
375.3576903831565
 20
244.4863169490035
 30
0.0
 10
375.1543384810936
 20
244.3852860845305
 30
0.0
 10
374.7070951456429
 20
244.2300065307501
 30
0.0
 10
373.748175570915
 20
243.9741913251993
 30
0.0
 10
372.3128741998821
 20
243.6576325786832
 30
0.0
 10
370.8013082767915
 20
242.8778185412287
 30
0.0
 10
369.4282762679696
 20
241.9424739544442
 30
0.0
 10
367.1673642191661
 20
240.9179346018799
 30
0.0
 10
364.470305911689
 20
238.8533836753288
 30
0.0
 10
361.5088230337813
 20
235.8525874060064
 30
0.0
 10
359.1067854681087
 20
232.4006155461289
 30
0.0
 10
356.73304306727
 20
229.308346578077
 30
0.0
 10
355.0643545941917
 20
226.1048430713933
 30
0.0
 10
353.8187551266971
 20
223.0492302791286
 30
0.0
 10
352.2392647743509
 20
220.139519309257
 30
0.0
 10
351.1222899482269
 20
216.7161888947034
 30
0.0
 10
350.5524700841722
 20
212.8860688464957
 30
0.0
 10
349.9326667812186
 20
208.7984733449643
 30
0.0
 10
349.7421426862894
 20
204.6436930168204
 30
0.0
 10
349.5062996560887
 20
200.4539271013784
 30
0.0
 10
349.1763289292904
 20
196.1990434716951
 30
0.0
 10
349.7922234636753
 20
191.8457846773864
 30
0.0
 10
350.0401967817114
 20
188.0776472387275
 30
0.0
 10
350.5430326355208
 20
184.8323295545728
 30
0.0
 10
350.676129428768
 20
182.7512965533008
 30
0.0
 10
350.7830546114871
 20
181.2689249372742
 30
0.0
 10
350.8718423475192
 20
180.6560846438775
 30
0.0
 10
351.0035572571713
 20
180.3661367792997
 30
0.0
 10
351.0590748617979
 20
180.2838168204824
 30
0.0
 10
351.1237465772307
 20
180.2281831332456
 30
0.0
 10
351.1877824242756
 20
180.2038975549531
 30
0.0
 10
351.2253926271734
 20
180.2094592694789
 30
0.0
 10
351.2382521598684
 20
180.2113609090413
 30
0.0
  0
SPLINE
  5
86
330
1F
100
AcDbEntity
  8
0
  6
Continuous
 62
     7
370
    25
100
AcDbSpline
210
0.0
220
0.0
230
1.0
 70
     8
 71
     3
 72
    34
 73
    30
 74
     0
 42
0.000000001
 43
0.00000001
 40
0.0
 40
0.0
 40
0.0
 40
0.0
 40
0.0003862189804681
 40
0.0036960676807642
 40
0.0074856277944317
 40
0.0119814727769369
 40
0.0299335867219315
 40
0.0861093080606846
 40
0.1405156902619656
 40
0.1833550128494257
 40
0.2207768620896122
 40
0.259081198137115
 40
0.3003490744497097
 40
0.3696252791921761
 40
0.4426087162947116
 40
0.5158199179578037
 40
0.6021490347856436
 40
0.6822380815707816
 40
0.7614803079444245
 40
0.7934127440281811
 40
0.8254292872413542
 40
0.857122447361473
 40
0.8882322255630037
 40
0.9195175116473973
 40
0.9565490299967011
 40
0.9755573156046629
 40
0.9836600394821299
 40
0.9909322738142265
 40
1.0
 40
1.0
 40
1.0
 40
1.0
 10
318.5688309517565
 20
33.90627351705593
 30
0.0
 10
318.5612657052421
 20
33.90764215062551
 30
0.0
 10
318.4888672355841
 20
33.92073980392365
 30
0.0
 10
318.3448205051309
 20
33.84398215039695
 30
0.0
 10
318.165437371866
 20
33.70697494165655
 30
0.0
 10
317.8407441771115
 20
33.29033505979731
 30
0.0
 10
317.2366643801004
 20
31.8350078699649
 30
0.0
 10
316.7176426617579
 20
29.32516652672701
 30
0.0
 10
316.1882978212281
 20
26.32308001762361
 30
0.0
 10
315.8124892530681
 20
23.66978147984558
 30
0.0
 10
315.6732801220516
 20
21.31303690274053
 30
0.0
 10
315.7461163200876
 20
18.98437920134113
 30
0.0
 10
316.0761114041994
 20
16.04024181897022
 30
0.0
 10
316.8932953100523
 20
12.46502249235282
 30
0.0
 10
318.5633777584205
 20
8.502861596780736
 30
0.0
 10
320.7663762159016
 20
4.439822369983693
 30
0.0
 10
322.9719950547979
 20
0.2193424580727299
 30
0.0
 10
325.3487714827654
 20
-4.050727000857623
 30
0.0
 10
327.5892757117189
 20
-7.135276159775633
 30
0.0
 10
329.4571054797188
 20
-9.279872436238762
 30
0.0
 10
330.6983387450422
 20
-10.71770081456575
 30
0.0
 10
331.8747923208728
 20
-12.19035002107743
 30
0.0
 10
332.9261596592547
 20
-13.7376397713207
 30
0.0
 10
333.819940856343
 20
-15.51817253359583
 30
0.0
 10
334.1365405732159
 20
-17.24725056398688
 30
0.0
 10
334.1172001812891
 20
-18.53938402016334
 30
0.0
 10
333.8882160241932
 20
-19.19304868839544
 30
0.0
 10
333.5319741994167
 20
-19.56203391805714
 30
0.0
 10
333.2024804267052
 20
-19.60933051962319
 30
0.0
 10
333.0196305778578
 20
-19.63557737817889
 30
0.0
  0
SPLINE
  5
87
330
1F
100
AcDbEntity
  8
0
  6
Continuous
 62
     7
370
    25
100
AcDbSpline
210
0.0
220
0.0
230
1.0
 70
     8
 71
     3
 72
    32
 73
    28
 74
     0
 42
0.000000001
 43
0.00000001
 40
0.0
 40
0.0
 40
0.0
 40
0.0
 40
0.0013475118587034
 40
0.0970180844330668
 40
0.1988740019934171
 40
0.2530875680899837
 40
0.3068917752021717
 40
0.3575164200985285
 40
0.3923673479969436
 40
0.4245907027424081
 40
0.4555902161881004
 40
0.4879241477341918
 40
0.5519376160521704
 40
0.6216678684076735
 40
0.6896407892809221
 40
0.7740183963950624
 40
0.8544888487876434
 40
0.882999465282514
 40
0.9076852100702927
 40
0.9180628536593602
 40
0.927064920088999
 40
0.9350429312565339
 40
0.9427859392838063
 40
0.9533064624483428
 40
0.9656150290606921
 40
0.9801039462247656
 40
1.0
 40
1.0
 40
1.0
 40
1.0
 10
211.877588439163
 20
21.24982803050755
 30
0.0
 10
211.8539743995697
 20
21.24907133461568
 30
0.0
 10
210.1538120801989
 20
21.19459078555522
 30
0.0
 10
206.6994301595067
 20
20.54790738284099
 30
0.0
 10
202.4738101445979
 20
19.23388935659863
 30
0.0
 10
199.1405568077188
 20
17.6542891791937
 30
0.0
 10
196.752472222911
 20
16.21431799355741
 30
0.0
 10
194.8451802111777
 20
14.66265478146177
 30
0.0
 10
193.5053580178504
 20
13.07329626179944
 30
0.0
 10
192.7026814811406
 20
11.52276294128557
 30
0.0
 10
192.4328643685142
 20
9.829151801438396
 30
0.0
 10
192.8272620366975
 20
7.59271723651711
 30
0.0
 10
194.1800030157438
 20
4.956541126706488
 30
0.0
 10
196.3310783714241
 20
2.132521805264354
 30
0.0
 10
198.9577857569489
 20
-0.7599384754838623
 30
0.0
 10
201.8315836256142
 20
-3.667860999429617
 30
0.0
 10
204.0754279229096
 20
-6.237330621872539
 30
0.0
 10
205.3762738471513
 20
-8.196877393573137
 30
0.0
 10
205.8840310230097
 20
-9.20196738610793
 30
0.0
 10
206.0957542325619
 20
-9.950855544923588
 30
0.0
 10
206.1372551579732
 20
-10.43547433990163
 30
0.0
 10
206.0435997882567
 20
-10.86859269108284
 30
0.0
 10
205.79453698847
 20
-11.26680502626556
 30
0.0
 10
205.3649764796351
 20
-11.60492088238996
 30
0.0
 10
204.7598073017999
 20
-11.86285787445832
 30
0.0
 10
203.9640130764391
 20
-12.07363872289896
 30
0.0
 10
203.3598645496132
 20
-12.10042688812313
 30
0.0
 10
203.0102882303785
 20
-12.11592722915236
 30
0.0
  0
SPLINE
  5
88
330
1F
100
AcDbEntity
  8
0
  6
Continuous
 62
     7
370
    25
100
AcDbSpline
210
0.0
220
0.0
230
1.0
 70
     8
 71
     3
 72
    19
 73
    15
 74
     0
 42
0.000000001
 43
0.00000001
 40
0.0
 40
0.0
 40
0.0
 40
0.0
 40
0.001430535802406
 40
0.0059862795279837
 40
0.0438249258956718
 40
0.089123889535675
 40
0.1499869652468613
 40
0.2659413036163573
 40
0.3857915594840891
 40
0.5162730771382463
 40
0.6507367330130094
 40
0.7846319325803591
 40
0.9776844802374401
 40
1.0
 40
1.0
 40
1.0
 40
1.0
 10
37.54475656109868
 20
58.19565592469925
 30
0.0
 10
37.55964395837838
 20
58.19760673413929
 30
0.0
 10
37.62194237929909
 20
58.20577017233802
 30
0.0
 10
38.08295559463845
 20
58.16255502996602
 30
0.0
 10
38.95862591269444
 20
57.85719280254614
 30
0.0
 10
40.36544806125669
 20
57.31700419585285
 30
0.0
 10
42.57302657890475
 20
56.56098775133814
 30
0.0
 10
45.62703875328392
 20
55.92487824986597
 30
0.0
 10
49.43920516453895
 20
55.45537698892112
 30
0.0
 10
53.46257940559273
 20
55.14146681915783
 30
0.0
 10
57.64458642411616
 20
55.04571294517291
 30
0.0
 10
62.48049957050228
 20
55.1889972610371
 30
0.0
 10
66.13341653089155
 20
55.44601253158778
 30
0.0
 10
68.38268501398595
 20
55.63842725168147
 30
0.0
 10
68.61574461231534
 20
55.65836444357952
 30
0.0
  0
SPLINE
  5
89
330
1F
100
AcDbEntity
  8
0
  6
Continuous
 62
     7
370
    25
100
AcDbSpline
210
0.0
220
0.0
230
1.0
 70
     8
 71
     3
 72
     9
 73
     5
 74
     0
 42
0.000000001
 43
0.00000001
 40
0.0
 40
0.0
 40
0.0
 40
0.0
 40
0.1387777254627155
 40
1.0
 40
1.0
 40
1.0
 40
1.0
 10
72.94156095736228
 20
56.02614626816268
 30
0.0
 10
73.15405784253859
 20
56.0442841273073
 30
0.0
 10
74.68526095505396
 20
56.1749813201324
 30
0.0
 10
76.21737554898034
 20
56.29464516960846
 30
0.0
 10
77.5368667644134
 20
56.3977023422341
 30
0.0
  0
SPLINE
  5
8A
330
1F
100
AcDbEntity
  8
0
  6
Continuous
 62
     7
370
    25
100
AcDbSpline
210
0.0
220
0.0
230
1.0
 70
     8
 71
     3
 72
    28
 73
    24
 74
     0
 42
0.000000001
 43
0.00000001
 40
0.0
 40
0.0
 40
0.0
 40
0.0
 40
0.0928221072556129
 40
0.1466460535328201
 40
0.1942504648478884
 40
0.2492603279370216
 40
0.2922603934449045
 40
0.3184324784736589
 40
0.3431219014905711
 40
0.3812351209535613
 40
0.4588722040113452
 40
0.5409611698314827
 40
0.6010004489360022
 40
0.6615807597453384
 40
0.6658099211432678
 40
0.672219992444106
 40
0.6849637564425717
 40
0.7033119589048945
 40
0.735440064601311
 40
0.772065164078774
 40
0.7996865173324239
 40
0.8224800009245465
 40
1.0
 40
1.0
 40
1.0
 40
1.0
 10
6.343791592688413
 20
116.2935382808887
 30
0.0
 10
11.78175496854514
 20
113.8412332346861
 30
0.0
 10
20.67602879317454
 20
110.954132013489
 30
0.0
 10
32.98920535298738
 20
108.5375435686858
 30
0.0
 10
42.93595474683373
 20
109.229727814083
 30
0.0
 10
52.43189752173433
 20
111.7380591778407
 30
0.0
 10
57.91799522770738
 20
116.6840416307685
 30
0.0
 10
64.14630753902406
 20
120.8593408794753
 30
0.0
 10
59.65790171482699
 20
126.407213978148
 30
0.0
 10
53.13064818640623
 20
131.5823204109494
 30
0.0
 10
43.05881682010171
 20
140.0601863409753
 30
0.0
 10
35.28114244490171
 20
151.5974544637242
 30
0.0
 10
29.08554419276424
 20
163.7291330645608
 30
0.0
 10
28.42469914054219
 20
170.7052471048654
 30
0.0
 10
28.71313616256976
 20
176.3498365836932
 30
0.0
 10
30.62222790031044
 20
175.3480943145544
 30
0.0
 10
32.14768049105204
 20
173.999896185279
 30
0.0
 10
35.80457948239712
 20
171.8585913439651
 30
0.0
 10
40.41592771954841
 20
168.7030608073342
 30
0.0
 10
45.21172734437112
 20
165.5600186651775
 30
0.0
 10
50.6600792946511
 20
161.3507643227449
 30
0.0
 10
61.83349631361121
 20
155.0092105422349
 30
0.0
 10
74.09192171965806
 20
148.5583320169214
 30
0.0
 10
87.2064594714454
 20
148.4473462623258
 30
0.0
  0
SPLINE
  5
8E
330
1F
100
AcDbEntity
  8
0
  6
Continuous
 62
     7
370
    25
100
AcDbSpline
210
0.0
220
0.0
230
1.0
 70
     8
 71
     3
 72
    19
 73
    15
 74
     0
 42
0.000000001
 43
0.00000001
 40
0.0
 40
0.0
 40
0.0
 40
0.0
 40
0.1888001108841005
 40
0.2147775470834647
 40
0.3143446550878968
 40
0.3427727162759037
 40
0.4866122704629797
 40
0.5491757022956757
 40
0.5689836033832835
 40
0.6289413843235301
 40
0.7034037863871213
 40
0.8018022827911976
 40
0.8959285037178026
 40
1.0
 40
1.0
 40
1.0
 40
1.0
 10
260.9832862504289
 20
59.34187840793658
 30
0.0
 10
279.6906934471565
 20
65.8525081328883
 30
0.0
 10
297.1170034432772
 20
95.40343561598898
 30
0.0
 10
301.7073534772819
 20
122.5036706524101
 30
0.0
 10
299.2146760039617
 20
142.248396697918
 30
0.0
 10
288.2701004801573
 20
162.6494003930207
 30
0.0
 10
281.3423354106327
 20
181.7407266797647
 30
0.0
 10
239.8538512958464
 20
199.452689834585
 30
0.0
 10
255.2641743234038
 20
188.7251467804539
 30
0.0
 10
265.1933194293298
 20
179.2785478709847
 30
0.0
 10
281.40311837142
 20
159.8132064954497
 30
0.0
 10
284.1284256423611
 20
131.4817045925483
 30
0.0
 10
275.787473473645
 20
101.0190950184609
 30
0.0
 10
259.074276940046
 20
87.79343872624659
 30
0.0
 10
250.6495962533701
 20
81.60850585515041
 30
0.0
  0
SPLINE
  5
96
330
1F
100
AcDbEntity
  8
0
  6
Continuous
 62
     7
370
    25
100
AcDbSpline
210
0.0
220
0.0
230
1.0
 70
     8
 71
     3
 72
     9
 73
     5
 74
     0
 42
0.000000001
 43
0.00000001
 40
0.0
 40
0.0
 40
0.0
 40
0.0
 40
0.6204556530795069
 40
1.0
 40
1.0
 40
1.0
 40
1.0
 10
232.7893075215852
 20
74.77694823869818
 30
0.0
 10
217.1599174540933
 20
72.12352015005436
 30
0.0
 10
189.2273143254001
 20
76.36062386676022
 30
0.0
 10
170.7930512958352
 20
96.51356664598916
 30
0.0
 10
165.3205459981739
 20
104.2835205099426
 30
0.0
  0
SPLINE
  5
9A
330
1F
100
AcDbEntity
  8
0
  6
Continuous
 62
     7
370
    25
100
AcDbSpline
210
0.0
220
0.0
230
1.0
 70
     8
 71
     3
 72
    11
 73
     7
 74
     0
 42
0.000000001
 43
0.00000001
 40
0.0
 40
0.0
 40
0.0
 40
0.0
 40
0.3849083058861662
 40
0.6045429473302718
 40
0.8015712862964148
 40
1.0
 40
1.0
 40
1.0
 40
1.0
 10
164.9126795903654
 20
82.94871751772482
 30
0.0
 10
171.4776533057727
 20
73.54009700966682
 30
0.0
 10
184.9636107784676
 20
60.51459364957447
 30
0.0
 10
207.5547166887489
 20
51.92015649349482
 30
0.0
 10
225.8783297254993
 20
48.71915742144729
 30
0.0
 10
237.6758464032725
 20
50.79547909829495
 30
0.0
 10
243.4626567658251
 20
51.93633090612396
 30
0.0
  0
SPLINE
  5
9C
330
1F
100
AcDbEntity
  8
0
  6
Continuous
 62
     7
370
    25
100
AcDbSpline
210
0.0
220
0.0
230
1.0
 70
     8
 71
     3
 72
    37
 73
    33
 74
     0
 42
0.000000001
 43
0.00000001
 40
0.0
 40
0.0
 40
0.0
 40
0.0
 40
0.0004502176414212
 40
0.0008549582816607
 40
0.0011966835775916
 40
0.0014937682855739
 40
0.0017754185124437
 40
0.0021159593636605
 40
0.0025244095145049
 40
0.0030284235477097
 40
0.0046754394730631
 40
0.0111394409412527
 40
0.0208878111379676
 40
0.0327850107109174
 40
0.0907283390211904
 40
0.1409442386269067
 40
0.1894221467854768
 40
0.2402602606881944
 40
0.2924004576322438
 40
0.3444663134750628
 40
0.396021092431073
 40
0.4476418725836581
 40
0.5031682992840443
 40
0.559138479246026
 40
0.6151541356183828
 40
0.6707462487444166
 40
0.7257072009917445
 40
0.7802138600492537
 40
0.8348807299871788
 40
0.8900556139607579
 40
0.9453772143948395
 40
1.0
 40
1.0
 40
1.0
 40
1.0
 10
246.1191728566465
 20
196.1518078343537
 30
0.0
 10
246.0981685983365
 20
196.1510634255133
 30
0.0
 10
246.0582817459787
 20
196.1496498014246
 30
0.0
 10
246.0043688810325
 20
196.1340381325323
 30
0.0
 10
245.9602918348926
 20
196.1128683017172
 30
0.0
 10
245.9278747586192
 20
196.0835891961335
 30
0.0
 10
245.9079432716255
 20
196.0444849516327
 30
0.0
 10
245.9039934206415
 20
195.9954289681495
 30
0.0
 10
245.9169366779727
 20
195.9378016303345
 30
0.0
 10
245.9658625787578
 20
195.8282220445699
 30
0.0
 10
246.2132540376773
 20
195.5068972645012
 30
0.0
 10
246.8502969600916
 20
194.9657774769485
 30
0.0
 10
247.8840377999346
 20
194.1632804936671
 30
0.0
 10
250.8829335184969
 20
191.980109137927
 30
0.0
 10
255.3767905810223
 20
188.641812347275
 30
0.0
 10
260.8079405291074
 20
183.7464391823461
 30
0.0
 10
265.6402257737772
 20
178.7170489245043
 30
0.0
 10
270.3136247071846
 20
173.4159740219484
 30
0.0
 10
274.6547601923033
 20
167.6181397731155
 30
0.0
 10
278.3185041249337
 20
161.3095897409645
 30
0.0
 10
280.8822005412554
 20
154.4951215002266
 30
0.0
 10
282.4385978895622
 20
147.2262064058569
 30
0.0
 10
283.0444113683198
 20
139.6121662179723
 30
0.0
 10
282.7702507589522
 20
131.7812139430044
 30
0.0
 10
281.7543169647382
 20
124.0102557205696
 30
0.0
 10
279.9174514854359
 20
116.4364103076697
 30
0.0
 10
277.1679686139548
 20
109.2156799258655
 30
0.0
 10
273.3920881129418
 20
102.516953056369
 30
0.0
 10
268.5781066323456
 20
96.5225497131401
 30
0.0
 10
263.0735565094569
 20
91.12912453416683
 30
0.0
 10
257.1557766295739
 20
86.20767692686134
 30
0.0
 10
253.0451813181328
 20
83.1548390230154
 30
0.0
 10
251.0029472896825
 20
81.63812210534064
 30
0.0
  0
SPLINE
  5
AA
330
1F
100
AcDbEntity
  8
0
  6
Continuous
 62
     7
370
    25
100
AcDbSpline
210
0.0
220
0.0
230
1.0
 70
     8
 71
     3
 72
    13
 73
     9
 74
     0
 42
0.000000001
 43
0.00000001
 40
0.0
 40
0.0
 40
0.0
 40
0.0
 40
0.1997404617494664
 40
0.3990741912945026
 40
0.5991913462095172
 40
0.7989421088942601
 40
0.9236960044529714
 40
1.0
 40
1.0
 40
1.0
 40
1.0
 10
6.697142629000563
 20
116.3231545310788
 30
0.0
 10
8.761655624010324
 20
115.4496854137415
 30
0.0
 10
12.8864776389605
 20
113.7045258273011
 30
0.0
 10
19.30756918474469
 20
111.696935973187
 30
0.0
 10
25.817555569565
 20
110.0281084625166
 30
0.0
 10
31.62610812458497
 20
109.0326689087342
 30
0.0
 10
36.13010353110319
 20
108.8332361109031
 30
0.0
 10
38.37581736032556
 20
109.0345082808784
 30
0.0
 10
39.22809397121851
 20
109.1108935979484
 30
0.0
  0
LINE
  5
AB
330
1F
100
AcDbEntity
  8
0
  6
Continuous
 62
     7
370
    25
100
AcDbLine
 10
72.9414425944
 20
56.0275385982
 30
0.0
 11
72.588091558
 21
55.997922348
 31
0.0
  0
LINE
  5
AC
330
1F
100
AcDbEntity
  8
0
  6
Continuous
 62
     7
370
    25
100
AcDbLine
 10
37.5444533452
 20
58.1983457954
 30
0.0
 11
37.1911023089
 21
58.1687295452
 31
0.0
  0
LINE
  5
AD
330
1F
100
AcDbEntity
  8
0
  6
Continuous
 62
     7
370
    25
100
AcDbLine
 10
202.6610972655
 20
-12.1940162749
 30
0.0
 11
203.0144483019
 21
-12.1644000248
 31
0.0
  0
LINE
  5
AE
330
1F
100
AcDbEntity
  8
0
  6
Continuous
 62
     7
370
    25
100
AcDbLine
 10
332.6663258395
 20
-19.6653665103
 30
0.0
 11
333.0196768758
 21
-19.6357502601
 31
0.0
  0
LINE
  5
AF
330
1F
100
AcDbEntity
  8
0
  6
Continuous
 62
     7
370
    25
100
AcDbLine
 10
360.448647615
 20
28.4428967
 30
0.0
 11
360.8019986513
 21
28.4725129502
 31
0.0
  0
LINE
  5
B0
330
1F
100
AcDbEntity
  8
0
  6
Continuous
 62
     7
370
    25
100
AcDbLine
 10
372.3980639992
 20
189.6696022556
 30
0.0
 11
372.0447129629
 21
189.6399860054
 31
0.0
  0
LINE
  5
B1
330
1F
100
AcDbEntity
  8
0
  6
Continuous
 62
     7
370
    25
100
AcDbLine
 10
350.2670900985
 20
249.5492489109
 30
0.0
 11
349.9137390622
 21
249.5196326607
 31
0.0
  0
LINE
  5
B2
330
1F
100
AcDbEntity
  8
0
  6
Continuous
 62
     7
370
    25
100
AcDbLine
 10
313.7668530205
 20
278.8923045346
 30
0.0
 11
313.4135019841
 21
278.8626882844
 31
0.0
  0
LINE
  5
B3
330
1F
100
AcDbEntity
  8
0
  6
Continuous
 62
     7
370
    25
100
AcDbLine
 10
224.4366218552
 20
283.5913428711
 30
0.0
 11
224.0832708188
 21
283.5617266209
 31
0.0
  0
LINE
  5
B4
330
1F
100
AcDbEntity
  8
0
  6
Continuous
 62
     7
370
    25
100
AcDbLine
 10
139.2621340405
 20
266.7147762224
 30
0.0
 11
138.9087830042
 21
266.6851599722
 31
0.0
  0
LINE
  5
B5
330
1F
100
AcDbEntity
  8
0
  6
Continuous
 62
     7
370
    25
100
AcDbLine
 10
64.0818849411
 20
236.7696070049
 30
0.0
 11
63.7285339048
 21
236.7399907547
 31
0.0
  0
LINE
  5
B6
330
1F
100
AcDbEntity
  8
0
  6
Continuous
 62
     7
370
    25
100
AcDbLine
 10
226.9420496758
 20
74.0380854728
 30
0.0
 11
227.2954007121
 21
74.067701723
 31
0.0
  0
LINE
  5
B7
330
1F
100
AcDbEntity
  8
0
  6
Continuous
 62
     7
370
    25
100
AcDbLine
 10
29.3555050187
 20
176.0668352329
 30
0.0
 11
29.0021539824
 21
176.0372189827
 31
0.0
  0
LINE
  5
B8
330
1F
100
AcDbEntity
  8
0
  6
Continuous
 62
     7
370
    25
100
AcDbLine
 10
6.3437915927
 20
116.2935382809
 30
0.0
 11
6.697142629
 21
116.3231545311
 31
0.0
  0
LINE
  5
B9
330
1F
100
AcDbEntity
  8
0
  6
Continuous
 62
     7
370
    25
100
AcDbLine
 10
243.4626567658
 20
51.9363309061
 30
0.0
 11
255.7193941598
 21
28.7988710946
 31
0.0
  0
LINE
  5
BA
330
1F
100
AcDbEntity
  8
0
  6
Continuous
 62
     7
370
    25
100
AcDbLine
 10
255.7193941598
 20
28.7988710946
 30
0.0
 11
272.4387657836
 21
37.7169802968
 31
0.0
  0
LINE
  5
BB
330
1F
100
AcDbEntity
  8
0
  6
Continuous
 62
     7
370
    25
100
AcDbLine
 10
272.4387657836
 20
37.7169802968
 30
0.0
 11
260.9832862504
 21
59.3418784079
 31
0.0
  0
LINE
  5
BC
330
1F
100
AcDbEntity
  8
0
  6
Continuous
 62
     7
370
    25
100
AcDbLine
 10
219.2135955997
 20
143.7611219348
 30
0.0
 11
250.6495962534
 21
81.6085058552
 31
0.0
  0
LINE
  5
BD
330
1F
100
AcDbEntity
  8
0
  6
Continuous
 62
     7
370
    25
100
AcDbLine
 10
254.9854247817
 20
162.4330357366
 30
0.0
 11
219.2135955997
 21
143.7611219348
 31
0.0
  0
LINE
  5
BE
330
1F
100
AcDbEntity
  8
0
  6
Continuous
 62
     7
370
    25
100
AcDbLine
 10
214.1228403868
 20
176.1453681888
 30
0.0
 11
254.9854247817
 21
162.4330357366
 31
0.0
  0
LINE
  5
BF
330
1F
100
AcDbEntity
  8
0
  6
Continuous
 62
     7
370
    25
100
AcDbLine
 10
214.1228403868
 20
176.1453681888
 30
0.0
 11
165.2550440424
 21
151.2595467329
 31
0.0
  0
LINE
  5
C0
330
1F
100
AcDbEntity
  8
0
  6
Continuous
 62
     7
370
    25
100
AcDbLine
 10
165.2550440424
 20
151.2595467329
 30
0.0
 11
179.0108696628
 21
124.0626854635
 31
0.0
  0
LINE
  5
C1
330
1F
100
AcDbEntity
  8
0
  6
Continuous
 62
     7
370
    25
100
AcDbLine
 10
179.0108696628
 20
124.0626854635
 30
0.0
 11
202.2441517269
 21
135.8941849895
 31
0.0
  0
LINE
  5
C2
330
1F
100
AcDbEntity
  8
0
  6
Continuous
 62
     7
370
    25
100
AcDbLine
 10
202.2441517269
 20
135.8941849895
 30
0.0
 11
232.7893075216
 21
74.7769482387
 31
0.0
  0
LINE
  5
C3
330
1F
100
AcDbEntity
  8
0
  6
Continuous
 62
     7
370
    25
100
AcDbLine
 10
165.3205459982
 20
104.2835205099
 30
0.0
 11
128.9384970548
 21
85.2930887278
 31
0.0
  0
LINE
  5
C4
330
1F
100
AcDbEntity
  8
0
  6
Continuous
 62
     7
370
    25
100
AcDbLine
 10
128.9384970548
 20
85.2930887278
 30
0.0
 11
137.5562826849
 21
68.6694285737
 31
0.0
  0
LINE
  5
C5
330
1F
100
AcDbEntity
  8
0
  6
Continuous
 62
     7
370
    25
100
AcDbLine
 10
137.5562826849
 20
68.6694285737
 30
0.0
 11
164.9126795904
 21
82.9487175177
 31
0.0
  0
LINE
  5
C6
330
1F
100
AcDbEntity
  8
0
  6
Continuous
 62
     7
370
    25
100
AcDbLine
 10
250.6495962534
 20
81.6085058552
 30
0.0
 11
251.0029472897
 21
81.6381221053
 31
0.0
  0
LINE
  5
C7
330
1F
100
AcDbEntity
  8
0
  6
Continuous
 62
     7
370
    25
100
AcDbLine
 10
243.4626567658
 20
51.9363309061
 30
0.0
 11
243.8160078021
 21
51.9659471563
 31
0.0
  0
LINE
  5
C8
330
1F
100
AcDbEntity
  8
0
  6
Continuous
 62
     7
370
    25
100
AcDbLine
 10
243.8160078021
 20
51.9659471563
 30
0.0
 11
256.0071308473
 21
28.9523497814
 31
0.0
  0
LINE
  5
C9
330
1F
100
AcDbEntity
  8
0
  6
Continuous
 62
     7
370
    25
100
AcDbLine
 10
164.9126795904
 20
82.9487175177
 30
0.0
 11
165.2660306267
 21
82.9783337679
 31
0.0
  0
LINE
  5
CA
330
1F
100
AcDbEntity
  8
0
  6
Continuous
 62
     7
370
    25
100
AcDbLine
 10
232.7893075216
 20
74.7769482387
 30
0.0
 11
233.1426585579
 21
74.8065644889
 31
0.0
  0
LINE
  5
CB
330
1F
100
AcDbEntity
  8
0
  6
Continuous
 62
     7
370
    25
100
AcDbLine
 10
202.2441517269
 20
135.8941849895
 30
0.0
 11
202.5975027632
 21
135.9238012397
 31
0.0
  0
LINE
  5
CC
330
1F
100
AcDbEntity
  8
0
  6
Continuous
 62
     7
370
    25
100
AcDbLine
 10
202.5975027632
 20
135.9238012397
 30
0.0
 11
233.1426585579
 21
74.8065644889
 31
0.0
  0
LINE
  5
CD
330
1F
100
AcDbEntity
  8
0
  6
Continuous
 62
     7
370
    25
100
AcDbLine
 10
233.1426585579
 20
74.8065644889
 30
0.0
 11
227.2831816447
 21
74.1826492769
 31
0.0
  0
LINE
  5
CE
330
1F
100
AcDbEntity
  8
0
  6
Continuous
 62
     7
370
    25
100
AcDbLine
 10
165.2550440424
 20
151.2595467329
 30
0.0
 11
165.6083950787
 21
151.2891629831
 31
0.0
  0
LINE
  5
CF
330
1F
100
AcDbEntity
  8
0
  6
Continuous
 62
     7
370
    25
100
AcDbLine
 10
214.300780144
 20
176.0856566178
 30
0.0
 11
165.6083950787
 21
151.2891629831
 31
0.0
  0
LINE
  5
D0
330
1F
100
AcDbEntity
  8
0
  6
Continuous
 62
     7
370
    25
100
AcDbLine
 10
165.6083950787
 20
151.2891629831
 30
0.0
 11
179.3037601112
 21
124.2118393021
 31
0.0
  0
LINE
  5
D1
330
1F
100
AcDbEntity
  8
0
  6
Continuous
 62
     7
370
    25
100
AcDbLine
 10
128.9384970548
 20
85.2930887278
 30
0.0
 11
129.2918480911
 21
85.322704978
 31
0.0
  0
LINE
  5
D2
330
1F
100
AcDbEntity
  8
0
  6
Continuous
 62
     7
370
    25
100
AcDbLine
 10
165.4044698744
 20
104.1725031715
 30
0.0
 11
129.2918480911
 21
85.322704978
 31
0.0
  0
LINE
  5
D3
330
1F
100
AcDbEntity
  8
0
  6
Continuous
 62
     7
370
    25
100
AcDbLine
 10
129.2918480911
 20
85.322704978
 30
0.0
 11
137.8464654688
 21
68.8208960287
 31
0.0
  0
ENDSEC
  0
SECTION
  2
OBJECTS
  0
DICTIONARY
  5
C
330
0
100
AcDbDictionary
281
     1
  3
ACAD_GROUP
350
D
  3
ACAD_LAYOUT
350
1A
  3
ACAD_MLINESTYLE
350
17
  3
ACAD_PLOTSETTINGS
350
19
  3
ACAD_PLOTSTYLENAME
350
E
  3
ACAD_SCALELIST
350
47
  0
DICTIONARY
  5
D
102
{ACAD_REACTORS
330
C
102
}
330
C
100
AcDbDictionary
281
     1
  0
DICTIONARY
  5
1A
102
{ACAD_REACTORS
330
C
102
}
330
C
100
AcDbDictionary
281
     1
  3
Layout1
350
1E
  3
Layout2
350
26
  3
Model
350
22
  0
DICTIONARY
  5
17
102
{ACAD_REACTORS
330
C
102
}
330
C
100
AcDbDictionary
281
     1
  3
Standard
350
18
  0
DICTIONARY
  5
19
102
{ACAD_REACTORS
330
C
102
}
330
C
100
AcDbDictionary
281
     1
  0
ACDBDICTIONARYWDFLT
  5
E
102
{ACAD_REACTORS
330
C
102
}
330
C
100
AcDbDictionary
281
     1
  3
Normal
350
F
100
AcDbDictionaryWithDefault
340
F
  0
DICTIONARY
  5
47
102
{ACAD_REACTORS
330
C
102
}
330
C
100
AcDbDictionary
281
     1
  3
A0
350
48
  3
A1
350
49
  3
A2
350
4A
  3
A3
350
4B
  3
A4
350
4C
  3
A5
350
4D
  3
A6
350
4E
  3
A7
350
4F
  3
A8
350
50
  3
A9
350
51
  3
B0
350
52
  3
B1
350
53
  3
B2
350
54
  3
B3
350
55
  3
B4
350
56
  3
B5
350
57
  3
B6
350
58
  3
B7
350
59
  3
B8
350
5A
  3
B9
350
5B
  3
C0
350
5C
  3
C1
350
5D
  3
C2
350
5E
  3
C3
350
5F
  3
C4
350
60
  3
C5
350
61
  3
C6
350
62
  3
C7
350
63
  3
C8
350
64
  3
C9
350
65
  3
D0
350
66
  3
D1
350
67
  3
D2
350
68
  0
LAYOUT
  5
1E
102
{ACAD_REACTORS
330
1A
102
}
330
1A
100
AcDbPlotSettings
  1

  2
none_device
  4

  6

 40
0.0
 41
0.0
 42
0.0
 43
0.0
 44
0.0
 45
0.0
 46
0.0
 47
0.0
 48
0.0
 49
0.0
140
0.0
141
0.0
142
1.0
143
1.0
 70
   688
 72
     1
 73
     0
 74
     5
  7

 75
    16
147
1.0
148
0.0
149
0.0
100
AcDbLayout
  1
Layout1
 70
     1
 71
     1
 10
0.0
 20
0.0
 11
420.0
 21
297.0
 12
0.0
 22
0.0
 32
0.0
 14
1.0000000000E+20
 24
1.0000000000E+20
 34
1.0000000000E+20
 15
-1.0000000000E+20
 25
-1.0000000000E+20
 35
-1.0000000000E+20
146
0.0
 13
0.0
 23
0.0
 33
0.0
 16
1.0
 26
0.0
 36
0.0
 17
0.0
 27
1.0
 37
0.0
 76
     0
330
1B
  0
LAYOUT
  5
26
102
{ACAD_REACTORS
330
1A
102
}
330
1A
100
AcDbPlotSettings
  1

  2
none_device
  4

  6

 40
0.0
 41
0.0
 42
0.0
 43
0.0
 44
0.0
 45
0.0
 46
0.0
 47
0.0
 48
0.0
 49
0.0
140
0.0
141
0.0
142
1.0
143
1.0
 70
   688
 72
     1
 73
     0
 74
     5
  7

 75
    16
147
1.0
148
0.0
149
0.0
100
AcDbLayout
  1
Layout2
 70
     1
 71
     2
 10
0.0
 20
0.0
 11
0.0
 21
0.0
 12
0.0
 22
0.0
 32
0.0
 14
0.0
 24
0.0
 34
0.0
 15
0.0
 25
0.0
 35
0.0
146
0.0
 13
0.0
 23
0.0
 33
0.0
 16
1.0
 26
0.0
 36
0.0
 17
0.0
 27
1.0
 37
0.0
 76
     0
330
23
  0
LAYOUT
  5
22
102
{ACAD_REACTORS
330
1A
102
}
330
1A
100
AcDbPlotSettings
  1

  2
none_device
  4
ANSI_A_(11.00_x_8.50_Inches)
  6

 40
6.35
 41
19.05
 42
6.35000508
 43
19.05000254
 44
279.4
 45
215.9
 46
-9.3138236408
 47
-1.8134137424
 48
0.0
 49
0.0
140
0.0
141
0.0
142
0.027063605
143
1.0
 70
  1696
 72
     0
 73
     0
 74
     0
  7

 75
     0
147
0.0179189148
148
-1300.4909072572
149
0.0
100
AcDbLayout
  1
Model
 70
     1
 71
     0
 10
0.0
 20
0.0
 11
420.0
 21
297.0
 12
0.0
 22
0.0
 32
0.0
 14
6.3437915927
 24
-19.6653665103
 34
0.0
 15
408.7292086305
 25
283.5913428711
 35
0.0
146
0.0
 13
0.0
 23
0.0
 33
0.0
 16
1.0
 26
0.0
 36
0.0
 17
0.0
 27
1.0
 37
0.0
 76
     0
330
1F
331
29
  0
MLINESTYLE
  5
18
102
{ACAD_REACTORS
330
17
102
}
330
17
100
AcDbMlineStyle
  2
Standard
 70
     0
  3

 62
   256
 51
90.0
 52
90.0
 71
     2
 49
0.5
 62
   256
  6
BYLAYER
 49
-0.5
 62
   256
  6
BYLAYER
  0
ACDBPLACEHOLDER
  5
F
102
{ACAD_REACTORS
330
E
102
}
330
E
  0
SCALE
  5
48
102
{ACAD_REACTORS
330
47
102
}
330
47
100
AcDbScale
 70
     0
300
1:1
140
1.0
141
1.0
290
     1
  0
SCALE
  5
49
102
{ACAD_REACTORS
330
47
102
}
330
47
100
AcDbScale
 70
     0
300
1:2
140
1.0
141
2.0
290
     0
  0
SCALE
  5
4A
102
{ACAD_REACTORS
330
47
102
}
330
47
100
AcDbScale
 70
     0
300
1:4
140
1.0
141
4.0
290
     0
  0
SCALE
  5
4B
102
{ACAD_REACTORS
330
47
102
}
330
47
100
AcDbScale
 70
     0
300
1:5
140
1.0
141
5.0
290
     0
  0
SCALE
  5
4C
102
{ACAD_REACTORS
330
47
102
}
330
47
100
AcDbScale
 70
     0
300
1:8
140
1.0
141
8.0
290
     0
  0
SCALE
  5
4D
102
{ACAD_REACTORS
330
47
102
}
330
47
100
AcDbScale
 70
     0
300
1:10
140
1.0
141
10.0
290
     0
  0
SCALE
  5
4E
102
{ACAD_REACTORS
330
47
102
}
330
47
100
AcDbScale
 70
     0
300
1:16
140
1.0
141
16.0
290
     0
  0
SCALE
  5
4F
102
{ACAD_REACTORS
330
47
102
}
330
47
100
AcDbScale
 70
     0
300
1:20
140
1.0
141
20.0
290
     0
  0
SCALE
  5
50
102
{ACAD_REACTORS
330
47
102
}
330
47
100
AcDbScale
 70
     0
300
1:30
140
1.0
141
30.0
290
     0
  0
SCALE
  5
51
102
{ACAD_REACTORS
330
47
102
}
330
47
100
AcDbScale
 70
     0
300
1:40
140
1.0
141
40.0
290
     0
  0
SCALE
  5
52
102
{ACAD_REACTORS
330
47
102
}
330
47
100
AcDbScale
 70
     0
300
1:50
140
1.0
141
50.0
290
     0
  0
SCALE
  5
53
102
{ACAD_REACTORS
330
47
102
}
330
47
100
AcDbScale
 70
     0
300
1:100
140
1.0
141
100.0
290
     0
  0
SCALE
  5
54
102
{ACAD_REACTORS
330
47
102
}
330
47
100
AcDbScale
 70
     0
300
2:1
140
2.0
141
1.0
290
     0
  0
SCALE
  5
55
102
{ACAD_REACTORS
330
47
102
}
330
47
100
AcDbScale
 70
     0
300
4:1
140
4.0
141
1.0
290
     0
  0
SCALE
  5
56
102
{ACAD_REACTORS
330
47
102
}
330
47
100
AcDbScale
 70
     0
300
8:1
140
8.0
141
1.0
290
     0
  0
SCALE
  5
57
102
{ACAD_REACTORS
330
47
102
}
330
47
100
AcDbScale
 70
     0
300
10:1
140
10.0
141
1.0
290
     0
  0
SCALE
  5
58
102
{ACAD_REACTORS
330
47
102
}
330
47
100
AcDbScale
 70
     0
300
100:1
140
100.0
141
1.0
290
     0
  0
SCALE
  5
59
102
{ACAD_REACTORS
330
47
102
}
330
47
100
AcDbScale
 70
     0
300
1/128" = 1'-0"
140
0.0078125
141
12.0
290
     0
  0
SCALE
  5
5A
102
{ACAD_REACTORS
330
47
102
}
330
47
100
AcDbScale
 70
     0
300
1/64" = 1'-0"
140
0.015625
141
12.0
290
     0
  0
SCALE
  5
5B
102
{ACAD_REACTORS
330
47
102
}
330
47
100
AcDbScale
 70
     0
300
1/32" = 1'-0"
140
0.03125
141
12.0
290
     0
  0
SCALE
  5
5C
102
{ACAD_REACTORS
330
47
102
}
330
47
100
AcDbScale
 70
     0
300
1/16" = 1'-0"
140
0.0625
141
12.0
290
     0
  0
SCALE
  5
5D
102
{ACAD_REACTORS
330
47
102
}
330
47
100
AcDbScale
 70
     0
300
3/32" = 1'-0"
140
0.09375
141
12.0
290
     0
  0
SCALE
  5
5E
102
{ACAD_REACTORS
330
47
102
}
330
47
100
AcDbScale
 70
     0
300
1/8" = 1'-0"
140
0.125
141
12.0
290
     0
  0
SCALE
  5
5F
102
{ACAD_REACTORS
330
47
102
}
330
47
100
AcDbScale
 70
     0
300
3/16" = 1'-0"
140
0.1875
141
12.0
290
     0
  0
SCALE
  5
60
102
{ACAD_REACTORS
330
47
102
}
330
47
100
AcDbScale
 70
     0
300
1/4" = 1'-0"
140
0.25
141
12.0
290
     0
  0
SCALE
  5
61
102
{ACAD_REACTORS
330
47
102
}
330
47
100
AcDbScale
 70
     0
300
3/8" = 1'-0"
140
0.375
141
12.0
290
     0
  0
SCALE
  5
62
102
{ACAD_REACTORS
330
47
102
}
330
47
100
AcDbScale
 70
     0
300
1/2" = 1'-0"
140
0.5
141
12.0
290
     0
  0
SCALE
  5
63
102
{ACAD_REACTORS
330
47
102
}
330
47
100
AcDbScale
 70
     0
300
3/4" = 1'-0"
140
0.75
141
12.0
290
     0
  0
SCALE
  5
64
102
{ACAD_REACTORS
330
47
102
}
330
47
100
AcDbScale
 70
     0
300
1" = 1'-0"
140
1.0
141
12.0
290
     0
  0
SCALE
  5
65
102
{ACAD_REACTORS
330
47
102
}
330
47
100
AcDbScale
 70
     0
300
1-1/2" = 1'-0"
140
1.5
141
12.0
290
     0
  0
SCALE
  5
66
102
{ACAD_REACTORS
330
47
102
}
330
47
100
AcDbScale
 70
     0
300
3" = 1'-0"
140
3.0
141
12.0
290
     0
  0
SCALE
  5
67
102
{ACAD_REACTORS
330
47
102
}
330
47
100
AcDbScale
 70
     0
300
6" = 1'-0"
140
6.0
141
12.0
290
     0
  0
SCALE
  5
68
102
{ACAD_REACTORS
330
47
102
}
330
47
100
AcDbScale
 70
     0
300
1'-0" = 1'-0"
140
12.0
141
12.0
290
     0
  0
ENDSEC
  0
EOF
